<?xml version="1.0" encoding="utf-8"?>
<!-- Generator: Adobe Illustrator 23.0.4, SVG Export Plug-In . SVG Version: 6.00 Build 0)  -->
<svg version="1.1" id="Capa_1" xmlns="http://www.w3.org/2000/svg" xmlns:xlink="http://www.w3.org/1999/xlink" x="0px" y="0px"
	 viewBox="0 0 768 1366" style="enable-background:new 0 0 768 1366;" xml:space="preserve">
<style type="text/css">
	.st0{fill:#2D2725;}
	.st1{fill:#322B25;}
	.st2{fill:#2C2928;}
	.st3{fill:#201519;}
	.st4{fill:#7E7D7D;}
	.st5{fill:#302D2B;}
	.st6{fill:#F0ACD2;}
	.st7{fill:#E5A6C8;}
	.st8{fill:#C4571B;}
	.st9{fill:#818181;}
	.st10{fill:#C0571E;}
	.st11{fill:#6A2004;}
	.st12{fill:#190F0B;}
	.st13{fill:#F19B18;}
	.st14{fill:#F4F4F4;}
</style>
<g>
	<path class="st0" d="M510.98,327.26c15.01,3.93,19.8,19.96,32.09,27.11c-5.25-0.2-10.65-0.62-9.92,7.31c0,2.64-1.43,6.39,1.2,7.59
		c11.64,5.31,14.16,17.01,19.5,26.69c2.11,3.82,5.83,8.72,1.65,12.31c-2.5,2.15-2.62,4.17-3.41,6.48
		c-4.65,13.74-2.73,29.21-11,42.01c-1.98,1.14-3.29,2.68-3.02,5.15l0.08-0.1c-0.58,0.57-1.15,1.15-1.73,1.72l0.1-0.1
		c-0.58,0.58-1.16,1.16-1.74,1.74c0,0,0.12-0.11,0.12-0.11c-2.01,0.23-3.34,1.15-3.39,3.36l0.15-0.12c-1.41,0.02-2.84,0-3.4,1.71
		c0,0,0.11-0.07,0.11-0.07c-3.42-0.16-6.71,0.43-9.87,1.76c-12.88-0.39-25.17-13.42-23.81-27.63c0.81-8.47-2.21-12.15-9.01-14.91
		c-1.69-0.69-3.1-2.07-4.64-3.13c-0.76-1.7-1.74-3.33-2.22-5.1c-1.56-5.71-4.07-5.39-7.33-1.34c0,0-0.08,0.08-0.08,0.08
		c-5.81,0.56-12.04,1.83-16.96-1.89c-3.55-2.68-5.67-1.23-8.36,0.44c-2.77-1.49-0.43-3.68-0.76-5.51c0.06-2.68,0.61-5.46,0.08-8.02
		c-2.87-13.93-1.65-27.75-0.47-41.77c0.67-8.04,8.29-12.75,7.75-20.77c0.52,1.35,1.04,2.7,2.38,6.2c0-4.73,0-7.04,0-9.35
		c13.92-8.6,18.78-18.97,15.37-32.23c-4.14-16.11-10.46-31.85-9.48-48.92c0.77-13.3-4.46-27.71,6.97-39.19
		c0.81-0.81,0.69-2.56,0.97-3.89c2.75-13.02,2.38-26.34,3.68-39.5c0.19-1.95-0.79-4.24-1.8-6.05
		c-7.96-14.21-20.95-22.73-34.72-30.33c-1.59-0.88-3.08-0.86-4.37,0.59c-5.54,0.7-6.9-7.32-12.7-6.09l-0.05-0.17
		c0.29-2.27-0.72-3.4-3-3.41c-13.11-6.56-24.75-15.04-39.69-19.2c-27.16-7.57-50.88-0.14-74.85,9.87c-4.35,1.81-8.63,4.89-11.7,8.45
		c-10.62,12.35-12.88,27.19-11.74,43c1.15,15.91,3.02,31.93,2.18,47.78c-0.58,10.98,0.3,21.35,1.9,32.08
		c1.5,10.14,1.73,20.62,0.34,30.95c-7.16,2.82-13.08,6.66-12.81,15.59l0.03,0.47c-4.73,0.92-6.88,3.82-6.58,8.59
		c0.26,8.68-2.5,16.39-7.96,23.01c-3.09,3.75-2.37,6.48,0.67,9.8c2.65,2.89,6.91,4.51,7.62,9.03c1.85,5.73,7.13,9.53,8.6,15.6
		c0.51,2.1,0.23,5.73,4.14,5.8c2.99,13.28,7.2,26.44,8.58,39.89c1.13,10.96,3.65,22.72-1.59,33.36c-2.8,5.69-4.65,11.22-4.49,17.48
		c-3.88,1.04-6.41,2.64-2.88,6.81c-0.32,0.16-0.67,0.27-1.03,0.31c-3.35,2.65-0.36,2.67,1.34,3.23l0.35,0.67
		c-0.48,2.45-0.22,5.41-3.88,5.68c-1.67-1.61-2.82-3.51-3.11-5.85c0-1.44-0.01-2.87-1.27-3.89c-0.84-1.42-0.61-3.69-3.03-3.87
		c0.07-2.41,4.27-2.96,2.59-6.32c-2.09-4.15-3.92,0.26-5.85-0.06c-6.67-1.13-14.03-0.75-18.28-10.24c-0.4,6.52-7.98,9.85-3.29,14.83
		c2.91,3.08,3.16,5.76,3.25,9.16c-1.04,0.23-2.08,0.47-3.12,0.7c-0.74-0.61-1.34-0.37-1.87,0.3c-6.44-5.18-12.86-1.46-19.46-0.24
		c-10.98,2.04-11.18,2.01-6.35,11.69c0.36,0.71,0.81,1.38,1.22,2.07c-3.77,2.06-2.96,5.54-2.73,8.83c-0.01,1.09-0.03,2.17-0.04,3.26
		c0.16,1.17,0.77,1.92,1.99,2.06l0.27-0.14c-0.95,2.32-0.23,5.36,1.46,5.73c10.96,2.35,10.29,18.86,23.07,18.64
		c6.3,10.2,16.58,18.5,15.41,32.26c-2.72,0.13-5.3-2.28-8.12-0.46c0.79-6.73-1.76-8.46-7.69-5.14c-0.37-4.14-2.79-8.48,1.25-12.16
		c2.27-2.08,0.14-3.22-1-4.55c-12.94-15.06-29.99-25.52-44.13-39.24c-1.42-1.38-3.23-1.8-5.2-1.92
		c-16.95-1.01-27.5-11.14-35.26-25.03c-3.55-6.35-7.36-12.49-11.98-18.12c3.3-1.11,5.35,3.02,8.48,2.51
		c1.69-7.58-5.15-10.64-7.36-15.94c-0.32-0.48-0.23-0.86,0.26-1.15c5.77-1.96,2.23-6.63,2.93-10.07l-0.27,0.02
		c6.35-4.71,7.35-11.39,6.88-18.61c9.39-10.36,14.82-23.87,26.04-32.77c-3.61,22.07-7.69,44.21,11.74,61.97
		c1.29,1.18,1.62,3.38,2.53,5.04c4.92,8.91,10.87,16.62,21.34,19.64c2.3,0.66,4.17,1.18,5.92-0.56c1.9-1.89,1.05-3.94,0.04-5.96
		c-1.22-2.43-2.29-4.92-2.22-7.73c0.07-3.07,0.22-6.15,4.06-6.97c3.81-0.82,5.28,1.4,6.22,4.67c0.45,1.57,0.27,3.97,3.03,4.16
		c2.22-1.48,1.54-3.82,1.56-5.83c0.26-21.16-8.13-40.69-12.03-61.06c-0.85-4.44-2.23-11.89-7.13-13.7
		c-6.75-2.49-13.8-6.73-21.72-3.81c1.44-4.86,6.23-5.16,9.74-7.28c9.17-5.52,21.77-7.58,22.57-21.79c0.08-1.88-0.39-4.03,0.35-5.59
		c2.46-5.15-1.57-7.67-4.37-9.82c-3.43-2.64-7.78-2.96-11.42,0.55c-4.41-13.54-8.07-27.36-15.39-42.07c0,8.21-0.06,14.39,0.01,20.58
		c0.09,7.89,0.43,15.93-4.09,22.83c-7.55,11.53-15.5,22.8-23.28,34.18c-4.18,1.88-5.81,6.39-9.28,9.01
		c-0.77,0.36-1.53,0.72-2.3,1.08c-11.07,0.26-19.2-5.49-23.45-14.73c-18.04-39.18-32.71-79.19-25.65-123.71
		c1.43-9.03,3.65-17.84,9.06-24.93c12.03-15.75,13.66-34.6,16.37-52.89c1.42-9.55,3.64-18.13,10.06-25.02
		c5.35-5.74,6.1-12.12,5.86-19.34c-0.49-14.84,2.03-29.16,9.44-42.22c7.49-13.2,18.31-16.37,32.37-10.04
		c3.38,1.52,6.12,4.59,10.06-0.99c3.06-4.32,7.31,0.45,7.77,3.85c0.67,4.96,3.56,5.98,7.32,6.95c7.11,1.84,14.31,3.24,21.61,1.72
		c9.1-1.89,17.06,2.5,25.35,4.48c13.27,3.16,27.8,4.2,38.13,14.43c6.53,6.47,15.15,9.95,21.27,16.61c3.19,3.47,5.8,1.67,8.59,0.12
		c7-3.9,13.73-6.87,19.89,1.57c0.84,1.15,3.45,1.21,5.28,1.39c8.09,0.77,16.18,1.77,24.29,1.99c16.79,0.47,31,6.72,43.28,17.94
		c7.82,7.15,16.22,13.1,26.85,15.88c23.27,6.07,42.03,30.41,29.77,59.03c-3.09,7.2-3.2,15.29-3.45,23.16
		c-0.12,3.98,1.88,6.36,4.96,8.63c8.61,6.36,10.06,19.06,2.97,26.87c-3.52,3.87-6.04,6.76-2.12,12.3c3.26,4.61,0.45,8.43-4.98,9.17
		c-3.86,0.53-4.39,2.23-3.35,5.45c0.66,2.05,1.19,4.17,1.59,6.29c1.4,7.46,3.69,13.9,12.3,16.18c5.44,1.44,9.82,5.28,14.17,8.83
		c-3.89,3.89-0.19,6.46,2.12,8.29C504.38,325.14,507.88,325.94,510.98,327.26z M145.45,349.92c-0.28,2.77,1.46,3.37,3.7,3.42
		c2.17,1.59,3.4,0.05,4.74-1.37c8.16-8.63,15.58-17.94,21.07-28.42c2.02-3.85,6.87-6.61,5.8-11.98c4.01-8.06-0.27-17,2.7-25.17
		c4.7,0.79,5.15-2.46,6.17-5.8c-3.78-0.63-3.71,3.35-6.11,3.76c-0.18-0.54-0.35-1.07-0.53-1.61c1.57-9.81-2.06-19.41-1.2-29.19
		c4.37-0.71,5.42-3.6,5.58-8.32c-2.57,1.52-4.31,2.55-6.05,3.58c-2.33-2.88-3.62-5.44-3.3-9.88c0.47-6.69,0.18-13.68-2.12-20.54
		c-1.54-4.59-3.27-10.64,2.52-14.61c6.9,1.67,7.57,7.76,8.99,13.09c1.59,5.95,2.54,12.06,4.04,18.04
		c3.76,15.04,7.54,30.08,13.08,44.6c-2.53,2.44-0.62,2.92,1.47,3.32c0.79,1.08,1.94,2.06,2.31,3.27
		c4.33,14.14,6.26,29.61,21.48,37.54c0.6,0.31,0.87,1.35,1.17,2.1c1.32,3.36,4.11,3.16,6.82,2.7c5.05-0.87,7.99-4.25,9.44-8.89
		c1.53-4.88-0.06-11.54,1.98-14.68c3.75-5.78,0.99-7.06-2.41-10.11c-1.55-1.39-7.47-3.42-1.53-7.2c0.43-0.27-0.25-2.55-0.64-3.82
		c-2.34-7.62-2.87-15.39-2.41-23.31c0.17-2.87,0.84-6.29-2.23-8.17c-9.5-5.83-14.47-14.96-18.56-24.79
		c-2.16-10.27-0.98-11.88,9.05-15.04c5.86-1.84,11.64-4.15,17.13-6.9c5.94-2.98,8.18-0.29,8.62,4.99c0.43,5.1,0.61,10.33,0.03,15.4
		c-1.33,11.59,2.83,19.62,15.33,24.17c-3.83-11.59-3.2-22.69-1.8-33.93c1.61-12.99-2.71-25.69-3-38.65
		c-0.11-5.05,2.9-12.6-7.4-11.24c-0.75,0.1-1.83-1.08-2.51-1.88c-3.01-3.53-3.83-18.28-1.35-22.86c2.99-0.29,5.86-0.39,8.31,1.98
		c2.4,2.31,3.37,0.83,4.48-1.66c6.05-13.54,15.35-24.24,28.3-31.67c2.3-1.32,4.95-2.76,3.49-6.25c-2.75-6.56-5.84-13.48-13.04-15.6
		c-6.35-1.87-11.42-5.74-17.24-8.32c-3.24-1.44-6.41-2.83-10.04-2.67c-9.93-3.6-20.02-4.27-30.35-1.87
		c-2.61,0.6-5.41,0.83-7.42-1.81c-4.01-5.25-9.84-6.14-15.88-6.67c-6.58-0.58-13.24-0.11-18.68-5.74c-2.64-2.74-8.5-4.29-11.3-3.89
		c-7.02,1.02-13.06,7.95-13.94,13.64c-1.87,12.16-6.28,24.08-5.11,36.74c0.52,5.68-1.74,11.04-3.2,16.55
		c-2.27,8.56-11.46,12.87-12.08,22.32c-0.52,7.95-2.42,15.8-3.49,23.72c-1.76,13.12-7.66,24.6-13.89,35.97
		c-3.13,0.2-1.82,1.97-1.25,3.49c-0.11,0.84-0.21,1.68-0.32,2.52c-2.43,1.59-3.29,4.16-4.28,6.69c-3.95,10.07-3.88,20.83-3.89,31.21
		c-0.05,33.38,9.93,64.47,24.18,94.3c1.2,2.51,2.5,5.6,6.3,5.4L145.45,349.92z M525.27,458.74c7.38-5.56,12.19-12.43,11.27-22.2
		c2.02-11.53,6.4-22.72,5.38-34.69c-0.32-3.74-0.95-7.51-2.01-11.1c-1.03-3.48-1.81-8.12-6.75-7.79c-5.01,0.34-3.93,5.37-4.49,8.37
		c-3.02,16.25-10.01,30.52-20.55,43.1c-5.21,6.22-4.94,13.16,1.11,21.75C513.73,462.57,519.19,462.41,525.27,458.74z M260.15,446.03
		c2.49,0.42,4.45-0.44,3.37-4.9c-1.08-4.44,0.82-7.59,5.61-7.9c4.25-0.28,4.47-2.86,4.55-6.1c0.52-19.32-3.8-37.92-9.09-56.24
		c-2.49-8.64-8.01-16.32-16.13-20.58c-4.43-2.32-9.59-6.12-15.11-3.97c-8.26,3.22-11.2,12.1-7.23,20.05
		c2.17,4.34,5.74,8.35,6.61,12.9c3.12,16.4,9.29,32.22,9.07,49.29C241.71,436.22,251.67,445.71,260.15,446.03z M457.66,379.39
		c0,5.41-0.27,10.83,0.07,16.21c0.47,7.52,8.27,12.52,15.64,10.48c6.3-1.74,9.87-6.36,12.61-11.79c4.38-8.69,6.36-18.46,10.54-27.05
		c7.89-16.23,4.79-29.5-6.87-42.07c-2.28-2.45-3.4-1.48-5.16,0.19C468.94,340.09,453.52,354.87,457.66,379.39z M184.02,481.69
		c-4.38-11.07-2.64-14.05,6.78-14.12c1.84-0.01,4.27,2.59,5.46-0.88c0.88-2.55-1-4.07-2.63-5.46c-8.82-7.48-12.61-18.71-20.28-27.1
		c-6.38-6.98-7.05-16.12-7.91-25.06c-0.2-2.06-0.97-6.88-3.63-2.99c-5.27,7.71-12.2,14.72-10.32,26.18
		c2.03,12.36,7.11,23.2,12.65,33.94C168,473.7,173.98,479.45,184.02,481.69z M524.09,360.01c0.37-5.55-2.26-10.11-4.38-14.76
		c-1.03-2.26-2.96-4.37-5.68-3.74c-2.9,0.66-1.63,3.55-1.89,5.52c-2.79,21.12-4.69,42.52-20.6,59.09c-2.37,2.47-1.47,5.9-1.97,8.94
		c-0.82,4.95,1.71,4.92,4.74,5.07c6.38,0.31,12.56-2.74,15.16-7.39C518.58,396.49,519.3,377.63,524.09,360.01z M253.01,265.08
		c-0.35,5.5,1.13,10.74,2.42,15.99c0.43,1.75,1.12,3.77,3.58,3.79c2.68,0.01,11.3-10.73,10.16-13.07
		c-2.46-5.06-4.9-10.21-8.86-14.36c-1.33-1.39-2.86-2.8-4.94-1.99c-2.05,0.8-2.3,2.83-2.35,4.78
		C252.99,261.83,253.02,263.46,253.01,265.08z M188.46,301.18c0.98-3.13,2.29-6.33-0.46-10.33
		C186.02,295.1,186,298.17,188.46,301.18z M186.63,238.05c-0.71-0.67-1.22-1.15-1.74-1.64c-0.46,0.54-1.27,1.09-1.27,1.63
		c0,0.54,0.81,1.09,1.27,1.64C185.4,239.2,185.92,238.72,186.63,238.05z M193.95,274.24c-0.44-0.19-0.88-0.38-1.31-0.57
		c-0.19,0.44-0.62,0.97-0.5,1.29c0.12,0.31,0.81,0.41,1.24,0.6C193.57,275.12,193.76,274.68,193.95,274.24z M128.57,337.71
		c-0.08,0.22-0.15,0.43-0.23,0.65c0.19,0.07,0.5,0.24,0.55,0.18c0.14-0.16,0.18-0.42,0.25-0.63
		C128.95,337.85,128.76,337.78,128.57,337.71z"/>
	<path class="st1" d="M174.2,1257.28c1.37-2.19,1.34-4.47,0.91-6.98c-5.13-29.82-4.22-59.06,6.45-87.91
		c6.85-18.51,10.66-38.06,13.99-57.47c1.19-6.95,3.53-13.09,5.44-19.63c4.63-15.83,3.85-32.65,8.23-48.66
		c2.04-7.45,5.81-14.64,5.33-22.68c-0.59-9.83-6.25-17.82-10.82-25.83c-10.98-19.21-18.15-39.7-23.59-60.96
		c-0.84-3.28-0.42-6.43,0.39-9.61c2.52,0.01,5.04,0.02,7.56,0.03c0.16,0.98,0.33,1.96,0.49,2.94c-1.4,1.06-0.96,1.61,0.52,1.87
		c1.31,0.73,1.63,1.98,1.92,3.34c5.22,24.34,15.55,46.56,27.87,68c6.7-3.07,4.42-9.78,6.4-14.66c0.67,6.5-0.14,13.23,2.97,19.7
		c1.49-5.49-1.07-11,1.63-15.99c0.64,8.95,0.26,17.73-2.5,26.42c-10.19,32.03-12.17,65.84-21.25,98.16
		c-4.97,17.68-5.99,36.78-12.9,53.54c-11.51,27.94-8.62,56.49-7.99,84.96c0.34,15.23,19.39,24.4,29.99,15.39
		c6.85-5.83,14.11-11.96,17.31-21.09c3.75-10.71,7.67-21.35,11.23-32.12c6.74-20.41,8.36-41.91,12.69-62.83
		c7.58-36.58,18.7-72.26,26.32-108.79c4.42-21.18,12.76-41.7,14.19-63.26c2.28-34.37,14.3-65.88,24.93-97.91
		c5.95-3.9,8.8-9.95,11.23-16.28c-0.62,6.07,0.65,12.2-1.52,18.27c-8.66,24.18-14.2,49.24-20.42,74.1
		c-1.64,6.55-1.81,13.47-2.88,22.04c14.53-25.01,15.06-25.81,25.73-32.38c12.56-7.74,25.33-8.01,38.15-0.54
		c2.94,3.96,1.5,10.4,7.23,12.77c1.1,2.44,2.6,4.78,3.23,7.34c4.76,19.49,7.48,39.27,8.63,59.31c0.85,14.75-2.29,29.01-4.06,43.48
		c-2.45,20,0.48,39.93,3.32,59.81c2.7,18.99,6.63,37.92,5.39,57.27c-0.45,7.02-1.09,13.93,0.08,21c2.77,16.77,5.06,33.62,7.55,50.43
		c-0.33,4.87-3.38,11.23,5.92,10.87c1.06,2.37,0.29,3.4-2.3,3.22c-2.45-0.18-4.04,0.81-4.28,3.44c-6.29-5.2-9.99-12.09-11.24-19.9
		c-4.32-27-8.39-54-6.56-81.58c1.04-15.75-2.37-31.4-5.22-46.77c-5.42-29.25-3.78-58.39-0.35-87.43
		c2.28-19.26-0.85-37.83-3.64-56.47c-1.87-12.44-11.73-20.57-20.58-28.68c-4.63-4.24-10.07-2.65-14.26,0.49
		c-10.24,7.67-20.45,15.71-20.79,30.25c-0.88,37.42-12.44,73.63-11.69,111.35c0.52,26.12,5.83,50.96,13.86,75.47
		c3.78,11.51,6.54,23.27,11.74,34.46c3.45,7.45-3.7,14.8-7.76,21.14c-9.47,14.83-20.52,28.57-31.88,42.04
		c-8.01,9.49-14.72,20.08-24.13,28.39c-4.07-1.97-8.24,3.21-12.29-0.19c0.07-0.26,0.05-0.6,0.21-0.78
		c23.36-25.47,38.64-57.52,65.32-80.27c2.21-1.89,2.35-3.21,0.3-5.2c-2.65-2.56-3.4-6.11-4.33-9.5
		c-3.51-12.81-8.08-25.26-12.39-37.81c-3.76-10.93-7.67-22.52-7.8-33.87c-0.44-38.69-3.35-77.53,3.14-116.06
		c1.08-5.8,3.54-11.44,2.26-18.21c-3.23,6.14-2.19,12.59-4.45,18.24c-4.62,20-9.12,40.03-13.9,59.99
		c-3.34,13.92-7.92,27.59-10.42,41.65c-3.86,21.73-7.62,43.58-12.34,65.02c-4.79,21.71-11.42,43.28-18.93,64.45
		c-4.04,11.39-10.83,19.62-20.04,26.58c-4.08-0.01-9.02-1.97-11.5,2.68c-1.74,3.28,6.4,1.26,4.23,5.92
		c-2.61,1.16-5.42,1.84-7.23-0.93c-4.26-6.53-12.54-2.83-17.64-7.21c-0.86-0.74-1.54,0.8-2.15,1.66c-5.4,7.64-6.09,7.62-12.09-0.03
		C177.94,1264.22,183.99,1257.72,174.2,1257.28z"/>
	<path class="st2" d="M529.9,966.39c-5.17,16.49-10.3,33-15.55,49.47c-1.67,5.25-0.33,10.51-0.57,15.74
		c-0.38,8.43-3.19,16.46-5.74,24.45c-9.31,29.16-11.16,59.04-7.12,89.13c2.27,16.86,6.87,33.39,12.33,49.58
		c6.13,18.18,12.48,36.29,18.63,54.47c0.58,1.72,0.3,3.71,0.55,5.56c0.52,3.81,2.31,7.02,6.37,7.33
		c15.32,1.17,30.59,3.16,46.01-0.26c8.32-1.84,18.47-7.75,25.27,0.28c10.93,12.92,28.61,20.92,30.21,41.2
		c0.7,8.82,1.8,16.92-3.5,24.76c-3.14,4.64-8.28,7.88-8.36,14.9c-0.04,3.38-5.64,4.28-7.37,0.56c-2.39-5.15-6.18-5.03-10.51-5.35
		c-4.58-0.33-9.17-0.94-13.68-1.78c-3.82-0.71-7.2-1.42-10.46,1.94c-2.1,2.16-5.58,2.06-8.53,1.91c-3.49-0.17-5.7,0.42-7.92,3.81
		c-3.02,4.61-7.34,5.15-9.25-1.28c-1.16-3.93-3.02-4.19-5.79-2.28c-11.31,7.79-24.3,8.36-37.32,8.88c-2.35,0.09-4.73-0.85-7.02,0.78
		c-7.74,5.49-8.84,4.97-11.46-4.94c-0.02-3.06-0.04-6.12-4.16-6.6c1.61-5.31-0.53-9.31-4.9-11.93c-1.93-1.16-4.16-1.86-4.03-4.33
		c0.41-7.91-4.87-13.14-8.36-19.34c-6.79-12.08-13.02-24.46-19.49-36.72c0.92-1.94,3.61-2.75,3.44-5.39
		c9.86,4.74,12.69,15.25,19.03,23.62c2.76-5.13,9.59-8.65,3.54-15.37c0.61-0.56,1.22-1.12,1.83-1.68c1.75,0.64,3.45,1.62,5.25,1.86
		c9.87,1.32,19.85-1.71,29.87,1.23c2.54,0.75,8.73-2.52,5.54-7.89c-9.83-16.58-12.1-35.8-19.34-53.27
		c-7.47-18.04-11.59-37.16-15.92-56.11c-4.01-17.55-1.54-35.6-2.17-53.41c-0.63-17.77,7.15-34.18,6.41-52.21
		c-0.31-7.66,4.44-17.01,6.22-25.6c2.64-12.76,8.61-24.37,10.84-37.27c2.32-13.48,5.69-26.93,13.33-38.74
		c1.07,3.08-0.19,7.17,3.9,8.93C530.88,958.81,523.26,962.57,529.9,966.39z M627.1,1322.48c5.49-12.66-0.38-36.46-10.26-44.82
		c-2.39-2.02-3.94-2.45-6,0.06c-1.16,1.42-2.44,0.83-3.33-0.4c-0.87-1.21-3.24-2.99-1.72-3.91c5.25-3.2,0.46-3.6-1.11-4.42
		c-9.68-5.02-19.44-2.93-29.22-0.16c-5.47,1.55-5.88,3.8-1.66,7.54c6.99,6.18,12.67,13.14,14.82,22.68
		c1.39,6.16,1.19,12.39,2.13,18.53c1.18,7.73,8.61,11.64,20.87,10.4c8.87-0.89,1.58-7.17,3.11-10.6c0.41-0.92,0.01-2.16,0.18-3.22
		c0.47-2.94,1.95-5.13,5.14-5.37c3.09-0.23,3.92,2.27,4.95,4.53C626.25,1316.06,624.65,1319.33,627.1,1322.48z M519.4,1339.21
		c7.16,0.28,13.18-1.32,19.27-2.57c5.41-1.11,6.92-3.85,5.29-9.3c-3.05-10.2-8.68-19.19-12.79-28.88
		c-2.48-5.86-3.7-12.86-12.62-12.22c-1.63,0.12-2.31-1.9-3.14-3.35c-4.07-7.11-10.08-2.68-15.25-2.18c-5.3,0.52-4.35,5.04-4.84,8.77
		c-1.88,14.38,3.81,26.87,8.96,39.69C507.38,1336.9,511.9,1340.7,519.4,1339.21z M580.46,1318.91c1.03-17.83-6.24-31.31-21.02-41.16
		c-5.9-3.93-12.18-6.1-19.12-5.28c-3.84,0.45-8.89,3.53-6.74,7.16c6.68,11.25,10.76,23.66,17.09,35c0.75,1.34,0.8,2.82,3.29,2.31
		c12.31-2.5,12.44-2.45,17.89,9.56c1.13,2.49,2.52,3.18,4.9,3.11c2.78-0.08,3.77-1.63,3.72-4.19
		C580.43,1323.25,580.46,1321.08,580.46,1318.91z"/>
	<path class="st2" d="M471.76,750.43c13.38,0.33,25.67-3.97,37.81-8.9c2.45-1,4.88-2.04,7.32-3.07c9.3,5.19,16.78,3.41,19.72-4.7
		c4.37-0.11,8.66-0.42,11.06-4.94l0.3-0.19c3.55-0.02,7.08-0.07,7.88-4.71l0.23-0.15c1.3,0.09,2.44-0.15,3.03-1.5l0.19-0.12
		c1.39,0.05,2.58-0.24,3.06-1.77c2.98-2.31,7.44-1.37,10.01-4.56c0.46-0.54,0.93-1.09,1.39-1.63l0.21-0.19
		c2.76,0.31,5.18-0.09,6.29-3.11l0.21-0.16c0.48-0.48,0.96-0.96,1.43-1.44l0.2-0.17c1.29,0.09,2.43-0.13,3.02-1.48l0.26-0.16
		c1.26,0.08,2.4-0.08,2.95-1.45l0.33-0.2c5.8-0.16,10.2-2.56,12.75-7.93l0.28-0.29c0.45-0.45,0.9-0.89,1.35-1.34l0.23-0.18
		c1.35,0.1,2.5-0.24,3.23-1.49c5.12-3.71,10.1-7.66,16.19-9.77l0.05-0.05c2.78-0.02,4.19-2.04,5.94-3.77
		c5.36-5.3,11.2-10.62,18.25-12.83c8.98-2.82,14.46-8.95,19.62-15.86c4.02-5.39,8.78-9.66,14.11-13.91
		c8.63-6.88,16.81-14.58,24.39-22.88c4.5-4.92,1.83-11.99,6.94-15.83c5.03-3.78,5.69-8.85,5.03-14.49
		c4.71-17,17.71-27.85,29.46-39.61c2.05-2.05,4.55-2.96,7.4-1.51c3.47,1.76,3.62,5.03,3.86,8.34c1.58,21.67-4.22,41.86-12.47,61.5
		c-6.33,15.06-14.43,29.08-25.22,41.48c-5.34,6.14-9.87,12.85-14.09,19.83c-21.73,36.02-52.31,62.43-89.65,81.18
		c-26.36,13.24-52.98,25.98-81.48,34.17c-2.38,0.08-5.18-0.23-5.82,2.84c-0.55,2.62,2.39,3.16,3.64,4.74
		c1.98,2.49,4.61,2.24,7.28,2.04c0,0-0.09-0.11-0.09-0.11c0.46,6.84,2.44,13.89-2.79,19.94c-3.7-9.18-11.04-15.91-16.17-24.12
		c-4.78-7.66-2.94-11.77,5.52-13.62c1.84-0.4,3.63-1.1,5.43-1.68c37.43-11.89,72.02-29.38,104.71-51.16
		c12.15-8.1,24.31-15.39,34.4-26.46c12.72-13.95,24.13-28.46,32.25-45.51c4.08-8.56,8.55-16.9,14.1-24.64
		c12.52-17.47,23.64-35.66,28.45-56.98c0.91-4.03,1.75-8.11,0.5-12.27c-7.94,3.3-12.03,8.94-15.07,15.9
		c-5.29,12.1-9.44,24.86-18.31,35.08c-10.08,11.62-16.56,26.51-29.64,35.29c-18.22,12.23-34.27,27.27-52.7,39.24
		c-14.43,9.38-26.23,22.18-42.1,30.13c-21.72,10.88-42.43,23.93-66,30.61c-17.11,4.85-33.73,15.25-52.62,6.74
		C469.44,754.24,470.91,752.43,471.76,750.43z"/>
	<path class="st2" d="M102.84,1356.95c-0.37,8.25-2.43,9.73-8.62,5.43c-2.09-1.45-2.92-1.06-4.72-0.18
		c-6.39,3.13-13.73,3.19-20.19,6.62c-3.99,2.12-6.44-1.84-7.57-5.24c-1.12-3.38-2.35-6.51-4.74-9.25
		c-13.02-14.92-16.38-32.5-13.77-51.59c2-14.62,13.55-21.26,26.56-14.47c5.87,3.06,9.55,2.58,14.25-1.6c4.55-4.03,11-4.23,16.63-6
		c3.97-1.25,4.82,3.65,8.25,5.39c2.93-3.46,4.81-8.19,9.27-10.33c1.46,2.76,3.48,4.75,6.79,4.97c-7.57,12.52-12.35,25.63-8.58,40.55
		c-3.5,1.01-5.61,3.37-6.6,6.81c-6.58-8.25-5.81-17.52-3.49-26.88c0.97-3.93,0.16-7.46-3.28-8.95c-3.94-1.7-7.56,0.34-9.26,4.29
		c-5.99,13.92-7.64,28.04-1.04,42.3c0.63,1.37,0.94,2.95,3.05,3.27c9.74,1.49,9.73,1.56,6.91,11.08
		C102.33,1354.46,101.72,1355.73,102.84,1356.95z M54.42,1297.93c-0.15,6.42-5.34,12.66,0.86,18.72c1.62,1.59,1.46,4.05-0.39,5.85
		c-1.03,1.01-2.02,3.1-1.06,3.33c6.6,1.57,3.13,5.78,2.91,9.31c-0.18,2.9,1.4,5.6,3.93,6.61c2.77,1.1,3.37-2.04,4.31-3.79
		c2.06-3.82,4.58-6.96,9.43-6c3.72,0.74,3.55-1.29,3-3.62c-0.5-2.1-1.52-4.08-2-6.18c-1.34-5.9-5.46-11.92,2.49-16.97
		c3.06-1.94,1.3-5.68-2.05-6.93c-5.1-1.91-10.71-2.42-14.82,1.6C56.71,1304.12,56.82,1299.46,54.42,1297.93z M78.91,1334.81
		c-0.64,3.62-3.2,5.68-4.95,8.27c-1.17,1.73-2.45,5.19,0.11,5.37c4.73,0.33,8,3.89,14.92,5.28
		C83.89,1346.98,82.76,1340.66,78.91,1334.81z"/>
	<path class="st3" d="M109.82,1328.07c0.98-3.45,3.1-5.8,6.6-6.81c2.99,5.73,5.96,5.53,9.05,0.04c1.46-2.59,3.24-4.99,4.65-7.6
		c6.73-12.51,19.14-19.07,30.24-28.06c-5.24-0.6-9.82-0.38-13.23-3.39c-10.55-9.35-10.61-9.43-22.14-1.54
		c-3.32-0.22-5.34-2.21-6.79-4.97c6.97-7.85,16.3-10.13,24.74-5.29c6.72,3.85,18.49,1.32,20.02,13.78
		c5.83-2.56,5.62-8.47,7.02-13.27c1.34-4.59,0.92-9.69,4.22-13.68c9.8,0.45,3.74,6.94,4.18,10.96c-3.22,1.28-2.66,3.86-2.93,6.67
		c-0.63,6.56-2.33,12.95-9.43,15.76c-19.52,7.74-30.07,24.01-39.33,41.44c-2.03,3.81,0.52,13.43,3.59,14.44
		c4.36,1.43,8.74,3.38,13.23,3.76c24.79,2.07,49.6,3.98,74.43,5.42c10.21,0.59,12.04-1.55,13.63-11.83
		c1.85-11.92-2.16-22.44-8.09-32.4c-3.75-6.3-5.56-12.46-3.46-20.03c1.52-5.48,2.66-11.83-2.55-16.71c2.17-4.66-5.97-2.64-4.23-5.92
		c2.48-4.65,7.42-2.69,11.5-2.68c-2.08,2.92-0.59,5.62,0.48,8.38c1.58,4.06,3.1,8.42,1.83,12.58c-3.27,10.7,0.68,19.76,5.05,29.08
		c2.46,5.24,4.99,5.2,7.53,0.96c5.4-9,12.24-16.88,18.48-25.23c4.04,3.41,8.22-1.78,12.29,0.19c-3.08,3.73-6.15,7.46-9.23,11.18
		c-2.22,0.11-3.08,1.35-2.91,3.46l0.05-0.05c-8.5-1.38-6.43,4.88-6.79,9.39c-1.53,2.23-3.05,4.45-4.59,6.67
		c-0.6-1.15-1.26-2.62-2.8-1.53c-2.86,2.01-1.68,4.51-0.45,6.9c-3.4,6.76-4.96,14.04-6.61,21.39c-2.32,10.31-5.84,12.57-16.44,13.15
		c-14.42,0.8-28.47-3.2-42.86-2.92c-20.36,0.4-40.07-5.04-60.18-6.95c-3.26-0.31-4.96-1.87-4.65-5.26
		c3.72-4.74,1.56-9.38-0.22-14.03c0.65-2.3,0.04-3.84-2.54-4.18C109.95,1328.94,109.82,1328.52,109.82,1328.07z"/>
	<path class="st4" d="M245.25,556.53c2.82-1.82,5.4,0.59,8.12,0.47c1.44,5.27,1.94,10.66,1.58,16.06
		c-2.25,33.91,4.12,67.16,7.44,100.64c-0.2,0.98-0.39,1.96-0.58,2.95c-0.09,0.57-0.19,1.13-0.28,1.7
		c-1.08,13.55-2.16,27.1-3.25,40.65c0.01,5.42,0.01,10.85,0.02,16.27c-0.06,2.2-0.12,4.4-0.17,6.61c-0.69,0.96-1.39,1.92-2.08,2.87
		c-1.4,0.38-2.77,1.18-4.26,0.3c-3.62-0.68-5.56-2.65-5.03-6.53c2.68-2.37,1.31-5.55,1.62-8.38c1.3-11.9-3.19-23.45-2.09-35.37
		c0.65-7.04-0.62-13.89-1.88-20.85c-2.64-14.6-5.47-29.56-3.49-44.24c2.84-20.97,2.84-41.9,2.79-62.9
		C243.71,563.29,243.33,559.74,245.25,556.53z"/>
	<path class="st3" d="M471.76,750.43c-0.84,2-2.32,3.81-1.94,6.19c-5.31,4.75-4.93-0.37-4.59-3.04c1.28-10.25,1.9-20.42,1.61-30.81
		c-0.41-14.87,0.82-29.79,1.08-44.69c0.75-43.12-0.07-86.23-1.84-129.31c-0.4-9.72,0.37-20.19-6-28.89
		c-1.84-4.09-3.58-8.21-2.18-12.85l0.42,0.17l-0.4-0.22c2.13,0.38,3.42-0.42,3.67-2.65c2.18-0.01,4.36-0.02,6.55-0.03
		c0.4,3,2.3,5.77,1.41,8.97c-0.01,2.08-0.01,4.16-0.02,6.24c0,0,0.05,0.49,0.05,0.49c11.19,70.5,9.86,141.29,4.46,212.12
		C473.56,738.16,472.62,744.34,471.76,750.43z"/>
	<path class="st3" d="M251.79,745.06c1.49,0.88,2.86,0.08,4.26-0.3c0.68,0.09,1.37,0.19,2.05,0.28l0.05,0.06
		c0.26,2.16-0.6,4.51,1.09,6.42c-0.04,0.56-0.08,1.11-0.13,1.67c-0.11,0.51-0.21,1.02-0.32,1.52c-3.85,16.15,0.83,33.82-8.76,48.94
		c-3.21-0.91-2.75-4.36-4.4-6.35c-10.56-6.48-37.87,0.67-43.87,13.25c-7.29,15.29-14.98,31.06-16.63,48.09
		c-1.9,19.61-1.56,39.46,2.95,58.92c-2.52-0.01-5.04-0.02-7.56-0.03c-1.52-5.37-3.32-10.67-3.47-16.33c1.46-1.18,1.2-2.21-0.26-3.15
		c-2.64-32.31-1.64-63.83,18.98-91.35c11.94-15.93,27.08-24.44,47.44-21.32c3.58,0.55,5.2-0.52,5.01-4.09
		C247.6,769.04,252.09,757.28,251.79,745.06z"/>
	<path class="st3" d="M572.37,715.82c-2.57,3.2-7.03,2.26-10.01,4.57c-1.02,0.59-2.04,1.18-3.06,1.77c0,0-0.19,0.12-0.19,0.12
		c-1.29-0.07-2.46,0.12-3.03,1.5c0,0-0.23,0.15-0.23,0.15c-3.28,0.47-6.33,1.34-7.88,4.71c0,0-0.3,0.19-0.3,0.19
		c-4.49-0.15-8.16,1.54-11.06,4.94c-2.95,8.11-10.42,9.9-19.72,4.7c16.61-10.72,35.12-17.73,52.49-26.96
		c46.89-24.92,86.6-58.86,122.13-97.98c8.54-9.4,17.02-18.85,25.52-28.28c0.66,5.64,0,10.71-5.03,14.49
		c-5.11,3.84-2.44,10.9-6.94,15.83c-7.58,8.3-15.76,15.99-24.39,22.88c-5.33,4.25-10.09,8.52-14.11,13.91
		c-5.16,6.91-10.65,13.04-19.62,15.86c-7.05,2.22-12.89,7.53-18.25,12.83c-1.75,1.73-3.17,3.75-5.94,3.77
		c-0.24-0.12-0.49-0.23-0.73-0.35c0.23,0.13,0.45,0.27,0.68,0.4c-6.09,2.11-11.06,6.06-16.19,9.77c-1.36-0.13-2.55,0.13-3.23,1.49
		c0,0-0.23,0.18-0.23,0.18c-0.45,0.45-0.9,0.89-1.35,1.34c0,0-0.28,0.29-0.28,0.29c-5.32,0.92-9.41,3.82-12.75,7.93
		c0,0-0.33,0.2-0.32,0.2c-1.32-0.2-2.4,0.08-2.95,1.45c0,0-0.26,0.16-0.26,0.16c-1.31-0.13-2.43,0.14-3.02,1.48
		c0,0-0.2,0.17-0.2,0.17c-0.48,0.48-0.96,0.96-1.43,1.44c0,0-0.21,0.16-0.21,0.16c-2.77-0.33-5.1,0.24-6.29,3.11
		c0,0-0.21,0.19-0.21,0.18C573.3,714.73,572.83,715.27,572.37,715.82z"/>
	<path class="st3" d="M533.14,361.68c-0.73-7.92,4.67-7.51,9.92-7.31c1.03,0.58,2.05,1.16,3.08,1.74c-1.51,4.44-2.38,8.37,4.79,6.72
		c1.78-0.41,3.68-0.33,5.52-0.47c0.54-0.09,0.91,0.11,1.13,0.61c4.26,6.3,9.47,11.47,16.87,13.99c2.17,1.98,4.02,4.94,6.57,5.78
		c13.05,4.34,9.89,13.77,8.09,23.19c-4.76,24.95-17.51,44.79-37.76,59.9c-5.25,3.92-8.79,10.57-16.55,10.59
		c-1.59-2.59-1.65-5.51-1.8-8.41c0.63-0.98,1.27-1.97,1.9-2.95c0,0-0.12,0.11-0.12,0.11c0.58-0.58,1.16-1.16,1.74-1.74
		c0,0-0.1,0.1-0.1,0.1c0.58-0.57,1.15-1.15,1.73-1.72c0,0-0.08,0.1-0.08,0.1c1.79-0.18,2.99-1.04,3.33-2.89
		c14.3-9.13,25.14-20.71,32.15-36.8c7.45-17.08,7.82-24.43-5.22-37.43C558.24,374.72,547.18,365.87,533.14,361.68z"/>
	<path class="st3" d="M494.94,1338.65c4.12,0.47,4.14,3.54,4.16,6.6c-22.55,5.29-45.2-1.1-67.76,0.56
		c-12.9,0.95-25.76,2.55-38.64,3.75c-13,1.21-17.27-4.1-14.62-16.75c2.64-12.6,9.31-22.89,16.88-32.84
		c6.91-9.08,12.1-18.66,7.92-30.63c0.24-2.62,1.83-3.61,4.28-3.44c2.59,0.19,3.35-0.84,2.3-3.22c5.56,4.18,11.99,3.19,18.27,3.09
		c0.83,0,1.65-0.01,2.48-0.01c4.5,0.03,9,0.07,13.5,0.1c3.89,0.14,7.78,0.27,11.67,0.41c0.46,6.09-3.81,4.63-7.13,4.36
		c-9.68-0.8-19.37-1.53-29.01-2.67c-5.54-0.66-8.69,1.3-8.2,6.85c1.01,11.41-4.16,20.3-10.53,28.97
		c-6.4,8.7-12.68,17.44-15.23,28.32c-2.46,10.49-2.17,11.02,8.77,10.28c20.19-1.36,40.28-5.8,60.58-3.17
		C468.2,1340.97,481.55,1341.38,494.94,1338.65z"/>
	<path class="st3" d="M537.08,820.07c5.23-6.04,3.25-13.1,2.79-19.94c12.53,19.92,16.46,42.24,17.57,65.16
		c0.58,11.85,0.75,23.79-1.19,35.64c-2.33,14.2-5.08,28.05-13.97,40.12c-5.57,7.56-6.89,17.53-12.37,25.34
		c-6.64-3.82,0.98-7.58,0.33-12.43c0.11-0.6-0.1-0.16-0.24,0.3c-0.27,0.87-0.01,1.03,0.58,0.35c0.3-0.34,0.42-0.85,0.55-1.31
		c0.02-0.07-0.37-0.25-0.87,0.66c-4.39-0.71-3.13-4.81-4.2-7.88c-0.02-0.35,0.07-0.67,0.29-0.95c3.64-1.7,9.84-2.39,3.2-8.13
		c0.78-2.66,1.56-5.32,2.33-7.98c10.2-3.85,19.46-21.43,17.22-32.94c-1.88-9.62-1.46-19.12-0.1-28.81
		c1.16-8.23,2.22-17.01-6.21-22.9c-0.44-1.65-0.87-3.29-1.31-4.94c5.52-5.54,4.24-11.81-2.99-14.72
		C538.01,823.17,537.54,821.62,537.08,820.07z M547.09,830.88c-0.26,0.43-0.65,0.81-0.66,1.2c-0.01,0.4,0.36,0.8,0.56,1.21
		c0.24-0.38,0.65-0.75,0.67-1.14C547.67,831.75,547.31,831.34,547.09,830.88z"/>
	<path class="st3" d="M245.25,556.53c-1.91,3.21-1.54,6.76-1.53,10.26c0.05,21.01,0.05,41.93-2.79,62.9
		c-1.98,14.67,0.85,29.64,3.49,44.24c1.26,6.96,2.53,13.81,1.88,20.85c-1.1,11.91,3.39,23.47,2.09,35.37
		c-0.31,2.83,1.06,6-1.62,8.38c-9.91-46.74-17.69-93.65-11.12-141.69c1.41-0.87,1.63-1.86,0.3-3c0.54-14.15,1.08-28.3,1.62-42.45
		C243.48,548.07,246.04,549.79,245.25,556.53z"/>
	<path class="st3" d="M208.43,320.27c3.65-3.52,7.99-3.19,11.42-0.55c2.8,2.15,6.83,4.67,4.37,9.82c-0.75,1.56-0.27,3.71-0.35,5.59
		c-0.7-0.41-1.58-0.67-2.06-1.25c-6.76-8.24-11.08-8.06-16.85,0.63c-1.64,2.48-3.36,4.97-5.42,7.09
		c-18.86,19.51-40.45,36-60.3,54.42c-4.04-2.24-4.14-5.28-0.24-7.07c4.95-2.27,5.63-5.83,5.08-10.38c3.32-3.25,6.65-6.5,9.97-9.75
		c0,0,0.69,0.01,0.69,0.01s0.67-0.15,0.67-0.15c1.77,1.62,3.44,5.44,5.71,3.67c2.02-1.58,1.8-5.4-2.33-6.36
		c3.31-3.25,6.61-6.5,9.92-9.75c9.5-7.14,18.12-15.34,25.6-24.47C198.38,326.81,201.5,321.42,208.43,320.27z"/>
	<path class="st4" d="M109.82,1328.07c0.01,0.45,0.13,0.88,0.37,1.26c-0.1,1.96,0.94,3.24,2.54,4.18c1.79,4.65,3.94,9.29,0.22,14.03
		c-2.95-0.6-3.91,1.37-4.25,3.63c-0.53,3.48-2.65,5.13-5.86,5.79c-1.12-1.22-0.51-2.5-0.13-3.77c2.82-9.53,2.83-9.59-6.91-11.08
		c-2.11-0.32-2.42-1.9-3.05-3.27c-6.6-14.26-4.95-28.38,1.04-42.3c1.7-3.95,5.31-5.99,9.26-4.29c3.44,1.49,4.25,5.01,3.28,8.95
		C104.01,1310.55,103.23,1319.81,109.82,1328.07z"/>
	<path class="st5" d="M533,468.01c0.15,2.9,0.22,5.82,1.8,8.41c-5.18,4.44-11.2,7.65-17.49,9.89
		c-14.97,5.33-28.33,13.26-40.78,22.98c-2.09,1.64-4.65,2.68-7,3.99c0.89-3.2-1.01-5.97-1.41-8.97c1.97-1.39,3.89-2.84,5.91-4.16
		c14.84-9.73,30.58-17.89,46.15-26.35c3.09-0.52,6.44-0.5,8.19-3.86c0,0-0.11,0.07-0.11,0.07c1.13-0.57,2.26-1.14,3.4-1.71
		c0,0-0.15,0.12-0.15,0.12C531.98,468.2,532.48,468.06,533,468.01z"/>
	<path class="st3" d="M142.37,436.93c2.21,5.3,9.05,8.36,7.36,15.94c-3.13,0.51-5.18-3.61-8.48-2.51c-3.12-1.2-5.09-3.73-7.13-6.17
		c0.01,0,0.14,0.37,0.14,0.37c-0.52-0.68-1.04-1.36-1.55-2.04c-0.64-4.27-3.77-4.77-7.23-4.77c-0.47,0.05-0.73-0.16-0.77-0.63
		c-0.44-6.72-0.35-13.68-7.52-17.52c0.12-1.09,0.24-2.18,0.36-3.27c7.64-4.05,9.9-10.54,8.47-18.7c-0.14-0.45,0.02-0.75,0.47-0.89
		c4.08-1.83,8.21-2.18,12.4-0.39c-4.04,5.1-7.42,10.63-10.06,16.55c-3.46,7.75-1.52,14.18,5.42,19.06c1.95,1.37,3.81,2.88,5.71,4.32
		c0.02,0.46,0.03,0.92,0.05,1.37c0.31-0.29,0.63-0.57,0.94-0.86l0.73-0.03L142.37,436.93z"/>
	<path class="st6" d="M-818.52,928.9c-3.88-2.68-13.01,1.54-13.2-7.29c-0.15-7.25,6.99-6.91,12.28-7.17c6.71-0.33,8.9,4.93,9.4,9.9
		C-809.54,929.28-814.24,928.86-818.52,928.9z"/>
	<path class="st0" d="M138.88,396.36c-4.2-1.79-8.33-1.43-12.41,0.39c4.17-7.71,11.31-12.54,17.61-18.19
		c0.55,4.55-0.13,8.11-5.08,10.38c-3.91,1.8-3.8,4.83,0.23,7.07C139.24,396.02,138.88,396.36,138.88,396.36z"/>
	<path class="st0" d="M117.18,419.62c7.17,3.84,7.07,10.79,7.52,17.52C119.54,432.43,116.36,426.88,117.18,419.62z"/>
	<path class="st0" d="M126,397.64c1.43,8.16-0.82,14.65-8.47,18.7C118.06,409.07,121.87,403.29,126,397.64z"/>
	<path class="st4" d="M510.98,327.26c-3.09-1.32-6.6-2.12-9.15-4.13c-2.31-1.82-6.01-4.4-2.12-8.29
		C505.43,317.2,511.73,319.03,510.98,327.26z"/>
	<path class="st0" d="M574.45,376.96c-7.4-2.53-12.61-7.69-16.87-13.99C563.7,367.04,570.06,370.81,574.45,376.96z"/>
	<path class="st3" d="M539.95,800.25c-2.67,0.2-5.3,0.45-7.28-2.04c-1.25-1.57-4.19-2.12-3.64-4.74c0.64-3.07,3.44-2.77,5.82-2.84
		C536.55,793.83,538.25,797.04,539.95,800.25z"/>
	<path class="st0" d="M556.44,362.36c-1.84,0.14-3.74,0.06-5.52,0.47c-7.16,1.65-6.29-2.27-4.79-6.72
		C549.95,357.57,553.53,359.41,556.44,362.36z"/>
	<path class="st1" d="M251.53,1316.09c0.36-4.51-1.72-10.77,6.79-9.39C256.62,1310.24,254.53,1313.49,251.53,1316.09z"/>
	<path class="st1" d="M243.69,1328.13c-1.23-2.4-2.41-4.89,0.45-6.9c1.54-1.09,2.2,0.38,2.8,1.53
		C246.93,1325.2,245.37,1326.7,243.69,1328.13z"/>
	<path class="st0" d="M125.47,437.77c3.46,0,6.59,0.5,7.23,4.77C130.03,441.35,127.35,440.17,125.47,437.77z"/>
	<path class="st1" d="M258.26,1306.76c-0.16-2.11,0.7-3.36,2.91-3.46C260.85,1304.99,259.92,1306.18,258.26,1306.76z"/>
	<path class="st1" d="M176.79,898.06c1.46,0.94,1.72,1.97,0.26,3.15C176.96,900.16,176.88,899.11,176.79,898.06z"/>
	<path class="st0" d="M235.94,593.84c1.33,1.14,1.12,2.13-0.3,3C235.08,595.77,235.15,594.77,235.94,593.84z"/>
	<path class="st7" d="M155.41,368.67l-0.67,0.15c0,0-0.69-0.01-0.69-0.01c0.01-0.98,0.03-1.95,0.04-2.93
		c0.77-0.36,1.54-0.72,2.3-1.07c0.26,0.41,0.57,0.78,0.91,1.12C156.68,366.85,156.04,367.76,155.41,368.67z"/>
	<polygon class="st5" points="469.56,520.01 469.52,519.52 470.07,519.72 	"/>
	<path class="st0" d="M134.26,444.58c0,0-0.14-0.37-0.14-0.37C134.11,444.2,134.26,444.58,134.26,444.58z"/>
	<path class="st6" d="M520.18,473.8c-15.57,8.46-31.31,16.62-46.15,26.35c-2.01,1.32-3.94,2.77-5.91,4.16
		c-2.18,0.01-4.36,0.02-6.54,0.03c-2.12-0.36-3.45,0.37-3.67,2.65l0.4,0.22c0,0-0.42-0.17-0.42-0.17
		c-14.36,8.95-15.73,24.33-16.94,38.48c-1.61,18.79-0.28,37.83-0.51,56.76c-0.24,19.98-1.89,39.95,1.81,59.85
		c1.27,6.81,2.9,13.81,1,20.86c-3.1,0.09-5.43-3.87-8.93-1.68c-0.68,0.08-1.36,0.16-2.04,0.24c-16.02-2.65-32.06-2.58-48.27-1.66
		c-12.58,0.72-25.42,0.75-37.59-4.06c-3.59-1.42-7.47-1.29-11.22-1c-22.01,1.69-43.27-2.63-64.42-7.9c-0.4-0.57-0.79-1.15-1.19-1.72
		c0,0,0-0.01,0-0.01c-1.34-14.53-1.85-29.19-4.22-43.55c-2.82-17.07-5.72-34.1-5.89-51.39c-0.16-17.43-4.13-33.21-16.71-45.96
		c-5.1-5.17-10.38-10.17-15.58-15.24c0.48-5.24-3.03-5.07-6.57-4.85l0.03,0.02c-0.57-1.75-1.05-3.55-1.74-5.25
		c-0.9-2.22-2.5-4.66-0.47-6.67c2.07-2.05,5.65-2.07,7.38-0.35c3.79,3.76,7.39,1.51,11.14,0.82c2.67,3.64,6.47,3.99,10.08,2.46
		c3.69-1.57,2.49-5.5,2.73-8.6c0.63-7.96-2.29-15.3-4.06-22.84c-0.36-1.55-1.39-3.31,0.02-4.5c1.49-1.26,2.88,0.32,4.26,1.03
		c4.72,2.46,9.31,5.5,15.08,4.12c2.42,0.18,2.19,2.45,3.03,3.87c0.42,1.3,0.85,2.59,1.27,3.89c0.29,2.35,1.44,4.24,3.11,5.85
		c0.39,1,0.75,2.01,1.16,3.01c5.51,13.36,16.57,23.38,22.09,36.76c5.89,14.29,5.97,14.25,20.86,9.15c1.02-0.35,2.15-0.39,3.16-0.76
		c14.2-5.24,29.72-5.12,43.73-11.78c15.32-7.29,29.6-14.7,32.21-33.72c2.98-21.66,16.6-35.07,34.77-44.98
		c6.72,0.68,8.01-7.35,13.68-8.7c2.04,3.05,0.8,6.36,1.16,9.44c0.48,4.15,3.18,6.83,6.43,8.63c2.03,1.13,5.04,1.08,6.58-1.34
		c4.93-7.72,12.13-14.22,13.09-24.1l0.08-0.08c4.31,0.48,5.25,5.95,9.56,6.44c1.54,1.06,2.95,2.44,4.64,3.13
		c6.79,2.76,9.82,6.44,9.01,14.91c-1.36,14.2,10.93,27.24,23.81,27.63C519.06,472.4,519.62,473.1,520.18,473.8z"/>
	<path class="st4" d="M122.86,212.31c0.11-0.84,0.21-1.68,0.32-2.52c1.33-0.84,1.46-2.1,1.25-3.49
		c6.23-11.37,12.14-22.85,13.89-35.97c1.06-7.92,2.97-15.77,3.49-23.72c0.61-9.45,9.8-13.76,12.08-22.32
		c1.46-5.51,3.72-10.87,3.2-16.55c-1.17-12.66,3.24-24.58,5.11-36.74c0.87-5.7,6.92-12.63,13.94-13.64c2.8-0.41,8.66,1.15,11.3,3.89
		c5.43,5.63,12.1,5.16,18.68,5.74c6.04,0.53,11.88,1.42,15.88,6.67c2.01,2.64,4.81,2.41,7.42,1.81c10.33-2.39,20.41-1.73,30.34,1.88
		c-0.42,3.29-2.18,6.45,1.95,9.27c2.54,1.73,1.72,5.99-1.22,6.53c-7.2,1.33-11.06,8.59-18.53,9.33c-4.33,0.43-4.83,3.22-3.83,7.71
		c1.79,8.03,7.7,14.58,8.29,22.61c0.48,6.61,3.59,8.39,9.08,8.73c-2.48,4.58-1.66,19.33,1.35,22.86c0.68,0.8,1.76,1.98,2.51,1.88
		c10.3-1.36,7.29,6.19,7.4,11.24c0.29,12.96,4.61,25.66,3,38.65c-1.39,11.24-2.02,22.34,1.8,33.93
		c-12.5-4.55-16.65-12.57-15.33-24.17c0.58-5.07,0.4-10.3-0.03-15.4c-0.45-5.27-2.68-7.96-8.62-4.99
		c-5.49,2.75-11.27,5.06-17.13,6.9c-10.04,3.16-11.21,4.76-9.06,15.04c-15.4-8.27-13.71-9.01-7.17-18.09
		c6.28-8.72,6.34-10.59-4.16-13.42c10.23-7.31,22.39-9.06,33.38-13.49c5.16-2.08,5.18-3.78,3.69-8.15
		c-2.15-6.33-4.92-12.92-4.97-19.41c-0.13-17.81-7.27-31.9-19.88-43.79c-1.67-1.57-3.4-2.78-5.76-2.17
		c-2.41,0.62-2.33,2.72-2.3,4.61c0.15,11.95-11.01,18.51-13.96,29.08c-0.52,1.88-3.33,5.65-6.05,3.92
		c-2.78-1.76-0.41-4.73,1.03-7.05c1.19-1.91,1.94-4.4-0.39-5.72c-2.77-1.57-3.73,1.45-4.79,3.05c-5.73,8.68-11.19,17.5-15.99,26.79
		c-3.03,5.87-2.41,12.13-4.35,17.73c-2.84,8.18,2.59,11.33,6.7,15.65c1.9,1.99,2.02,4.31,1.98,6.77
		c-5.79,3.98-4.06,10.03-2.52,14.61c2.3,6.85,2.6,13.84,2.12,20.54c-0.31,4.44,0.97,7,3.3,9.88c0.16,1.58,0.32,3.16,0.48,4.74
		c-0.86,9.78,2.77,19.38,1.2,29.19c-1.25-0.49-2.7-1.66-3.71-1.36c-11.11,3.26-12.77-5.34-15.41-12.32
		c-1.7-4.49-3.63-8.97-3.44-14.04c0.18-4.91-2.12-5.88-5.89-2.79c-2.14,1.75-4.28,3.95-7.11,2.18c-2.77-1.73-1.25-4.93-1.55-7.49
		c-0.31-2.58,1.48-4.48,2.24-6.7c3.48-10.07,8.06-20.07,4.79-31.18c-0.59-1.99-0.62-4.83-3.19-5.14c-2.79-0.33-2.88,2.61-3.79,4.45
		c-3.7,7.48-7.48,14.92-13.41,20.95c-1.92,1.96-4.06,3.86-6.94,1.38c-2.02-1.74-3.66-4.52-1.56-6.28
		C129.89,219.45,125.01,216.14,122.86,212.31z"/>
	<path class="st8" d="M278.59,461.36c-0.16-6.26,1.7-11.79,4.5-17.48c5.23-10.64,2.71-22.4,1.59-33.36
		c-1.38-13.45-5.59-26.61-8.58-39.89c0.32-2.29-0.3-4.52-1.74-6.09c-5.02-5.51-2.71-10.31,1.06-15.07
		c4.69-5.93,9.4-11.85,14.14-17.74c7.78-9.67,13.54-20.8,15.2-32.75c2.98-21.41,2.29-43.03-1.74-64.45
		c-3.88-20.63-5.44-41.34,2.78-61.36c2.94-7.16,7.26-13.75,10.96-20.59c0,0-0.04,0.04-0.04,0.04c5.01-0.86,7.3-5.33,10.65-8.27
		c25.68-22.56,58.4-25.5,84.2-6.92c-19.32,0.49-34.2,9.02-46.28,23.06c-0.61,1.01-1.23,2.01-1.84,3.02
		c-0.54,0.55-1.09,1.1-1.63,1.64c-14.16,12.95-25.66,27.79-30.37,46.7c-5.88,23.63-3.28,47.16,2.29,70.53
		c5.49,23.04,2.41,44.47-12.31,63.69c-3.1,4.05-5.55,8.59-8.3,12.91c-1.67,2.08-3.47,4.07-5.01,6.24
		c-10.94,15.51-13.91,32.98-12.53,51.5c-7.48,4.43-8.34,7.39-3.2,13.56c2.42,2.9,2.98,5.98,3.65,9.47
		c1.69,8.8-3.42,15.17-6.96,22.17C285.58,461.75,282.09,461.56,278.59,461.36z"/>
	<path class="st9" d="M178.39,203.78c0.05-2.46-0.08-4.78-1.98-6.77c-4.11-4.32-9.54-7.48-6.7-15.65c1.94-5.6,1.32-11.87,4.35-17.73
		c4.8-9.29,10.26-18.11,15.99-26.79c1.06-1.6,2.02-4.63,4.79-3.05c2.33,1.33,1.58,3.81,0.39,5.72c-1.45,2.32-3.81,5.28-1.03,7.05
		c2.72,1.73,5.53-2.05,6.05-3.92c2.95-10.57,14.11-17.13,13.96-29.08c-0.02-1.89-0.11-3.98,2.3-4.61c2.36-0.61,4.09,0.6,5.76,2.17
		c12.61,11.89,19.74,25.98,19.88,43.79c0.05,6.5,2.82,13.08,4.97,19.41c1.49,4.37,1.47,6.07-3.69,8.15
		c-11,4.43-23.16,6.18-33.38,13.49c10.51,2.82,10.44,4.7,4.16,13.42c-6.54,9.08-8.23,9.82,7.17,18.09
		c4.09,9.83,9.07,18.96,18.56,24.79c3.07,1.89,2.4,5.3,2.23,8.17c-0.46,7.92,0.06,15.69,2.41,23.31c0.39,1.27,1.07,3.55,0.64,3.82
		c-5.94,3.78-0.02,5.81,1.53,7.2c3.4,3.06,6.16,4.33,2.41,10.11c-2.04,3.15-0.45,9.8-1.98,14.68c-1.46,4.64-4.4,8.02-9.44,8.89
		c-2.71,0.47-5.5,0.66-6.82-2.7c-0.29-0.75-0.57-1.79-1.17-2.1c-15.22-7.93-17.15-23.4-21.48-37.54c-0.37-1.21-1.52-2.19-2.31-3.27
		c0.1-1.37-0.27-2.52-1.47-3.32c-5.54-14.52-9.32-29.56-13.08-44.6c-1.49-5.98-2.45-12.09-4.04-18.04
		C185.96,211.54,185.29,205.45,178.39,203.78z M191.26,177c-4.1-0.58-5.08,2.37-5.56,5.34c-0.59,3.68,2.58,2.41,4.38,2.91
		c-1.22,7.45,2.85,9.51,9.38,9.6c5.96,0.08,10.34-2.56,14.04-6.86c3.51-4.09,2.05-7.86-2.34-8.59c-4.24-0.71-5.96-3.15-7.93-5.94
		c-2.12-3-4.37-5.35-8.56-4.38C189.81,170.21,191.91,174.16,191.26,177z"/>
	<path class="st10" d="M269.61,298.81c0,0-0.03-0.47-0.03-0.47c5.24-4.4,11.25-8.17,12.81-15.59c1.39-10.33,1.17-20.81-0.34-30.95
		c-1.59-10.73-2.48-21.1-1.9-32.08c0.84-15.85-1.03-31.86-2.18-47.78c-1.14-15.81,1.12-30.64,11.74-43
		c3.07-3.57,7.35-6.64,11.7-8.45c23.97-10.01,47.68-17.43,74.85-9.87c14.95,4.16,26.58,12.64,39.69,19.2c1,1.14,2,2.27,3,3.41
		c0,0,0.05,0.17,0.05,0.17c0,0.45,0.09,0.89,0.28,1.31c-4.23,0.14-7.74-1.78-11.33-3.71c-6.17-3.31-12.49-6.22-19.43-7.71
		c-22.02-4.75-40.89,2.72-58.3,15.21c-5.28,3.79-11.75,6.82-13.51,14.13l0.04-0.04c-4.45-0.01-5.42,3.8-7.31,6.63
		c-13.34,19.92-13.5,42.24-11.89,64.89c-3,0.03-5.49,0.69-5.2,4.48c0.52,6.88-1.35,13.9,1.16,20.66c0.04,0.11,0.48,0.15,0.72,0.1
		c6.24-1.25,4.44,3.66,4.5,6.39c0.24,10.8-0.1,21.62,0.19,32.42c0.13,4.71-1.66,9.71,1.43,14.14c-0.48,2.07-0.79,4.19-1.46,6.19
		c-4.94,14.95-16.14,25.78-24.97,38.2c-3.37,4.74-6.01,5.87-10.56,2.55c-0.71-4.53-4.97-6.14-7.62-9.03
		c-3.04-3.32-3.76-6.05-0.67-9.8c5.46-6.62,8.22-14.33,7.96-23.01C265.23,304.53,267.42,301.67,269.61,298.81z M293.12,301.14
		c0.67-0.01,1.33-0.02,2-0.04c0.68-7.89,0.79-15.77-2-23.59C293.12,285.39,293.12,293.27,293.12,301.14z"/>
	<path class="st10" d="M452.71,342.16c0.53,8.01-7.08,12.73-7.76,20.76c-1.18,14.01-2.39,27.84,0.47,41.77
		c0.53,2.56-0.03,5.34-0.08,8.01c-0.72,0.16-1.74,0.07-2.12,0.53c-12.98,15.73-33.77,22.27-45.88,39c2.15-6.15,3.55-12.51,4.1-18.97
		c2.19-26,10.43-50.04,22.76-72.9c5.89-10.91,12.4-21.86,12.96-34.65c1.13-25.52,0.07-50.92-8.85-75.25
		c-4.45-12.13-4.48-24.04-1.81-36.59c3.56-16.76,12.71-32.02,13.04-49.75c3.81,8.43,8.23,16.46,10.56,25.36
		c5.63,21.51,4.26,42.83-1.82,63.98c-3.36,11.69-6.77,23.32-7.98,35.52C438.4,308.17,447.65,324.65,452.71,342.16z"/>
	<path class="st9" d="M122.86,212.31c2.15,3.83,7.03,7.14,1.15,12.1c-2.1,1.77-0.46,4.54,1.56,6.28c2.88,2.48,5.02,0.58,6.94-1.38
		c5.93-6.03,9.71-13.47,13.41-20.95c0.91-1.84,0.99-4.78,3.79-4.45c2.57,0.31,2.6,3.14,3.19,5.14c3.27,11.12-1.31,21.12-4.79,31.18
		c-0.77,2.22-2.55,4.12-2.24,6.7c0.3,2.56-1.22,5.76,1.55,7.49c2.83,1.77,4.97-0.43,7.11-2.18c3.77-3.09,6.07-2.12,5.89,2.79
		c-0.19,5.07,1.74,9.55,3.44,14.04c2.65,6.98,4.31,15.58,15.41,12.32c1.02-0.3,2.47,0.87,3.71,1.36c0.18,0.54,0.35,1.07,0.53,1.61
		c-0.02,0.68-0.04,1.36-0.05,2.05c-2.97,8.17,1.31,17.11-2.71,25.16c-1.15-2.06-2.57-2.91-4.28-0.66
		c-6.91,9.08-16.58,14.4-26.9,18.96c1.56,1.88,2.81,1.52,4.12,1.1c2.53-0.82,5.91-2.33,7.29,0.36c1.44,2.79-2.43,4.22-3.98,6.23
		c-3.51,4.54-10.18,6.05-11.83,12.38c-3.8,0.2-5.1-2.9-6.3-5.4c-14.25-29.84-24.23-60.92-24.18-94.3
		c0.02-10.37-0.06-21.14,3.89-31.21C119.57,216.47,120.43,213.9,122.86,212.31z M175.82,304.47c0.18-3.33,2.55-6.81-0.77-9.61
		c-0.93-0.78-2.34-0.06-2.64,0.92C171.33,299.26,171.93,302.38,175.82,304.47z"/>
	<path class="st9" d="M191.55,364.2c7.92-2.92,14.97,1.32,21.72,3.81c4.9,1.81,6.28,9.26,7.13,13.7
		c3.91,20.37,12.3,39.91,12.03,61.06c-0.02,2.02,0.66,4.36-1.56,5.83c-2.76-0.2-2.58-2.59-3.03-4.16c-0.94-3.27-2.41-5.49-6.22-4.67
		c-3.83,0.83-3.99,3.9-4.06,6.97c-0.07,2.81,1.01,5.3,2.22,7.73c1.01,2.02,1.87,4.07-0.04,5.96c-1.76,1.75-3.63,1.22-5.92,0.56
		c-10.47-3.01-16.41-10.73-21.34-19.64c-0.91-1.65-1.24-3.85-2.53-5.04c-19.43-17.76-15.35-39.9-11.74-61.97
		C182.78,371.11,185.64,365.65,191.55,364.2z"/>
	<path class="st10" d="M431.7,139.49c1.29-1.45,2.78-1.47,4.37-0.59c13.77,7.59,26.76,16.12,34.72,30.33c1.02,1.81,2,4.1,1.8,6.05
		c-1.3,13.16-0.93,26.48-3.68,39.5c-0.28,1.32-0.16,3.07-0.97,3.89c-11.43,11.48-6.2,25.89-6.97,39.19
		c-0.98,17.07,5.34,32.81,9.48,48.92c3.41,13.26-1.45,23.63-15.37,32.23c-3.26-9.45-6.95-18.76-9.68-28.35
		c-4.95-17.44-0.78-34.42,4.21-51.07c8.46-28.24,10.57-56.19-1.2-84.12C443.28,163.25,435.85,152.13,431.7,139.49z"/>
	<path class="st11" d="M431.7,139.49c4.15,12.65,11.57,23.77,16.72,35.97c11.77,27.93,9.66,55.88,1.2,84.12
		c-4.99,16.65-9.16,33.63-4.21,51.07c2.72,9.59,6.42,18.91,9.68,28.35c0,2.32,0,4.63,0,9.36c-1.35-3.5-1.87-4.85-2.38-6.2
		c-5.05-17.5-14.3-33.99-12.4-53.18c1.21-12.2,4.62-23.83,7.98-35.52c6.08-21.15,7.45-42.48,1.82-63.98
		c-2.33-8.9-6.74-16.93-10.56-25.36c-0.33,17.73-9.47,32.99-13.04,49.75c-2.67,12.56-2.64,24.46,1.81,36.59
		c8.92,24.33,9.99,49.72,8.85,75.25c-0.57,12.79-7.08,23.74-12.96,34.65c-12.33,22.86-20.57,46.9-22.76,72.9
		c-0.54,6.47-1.94,12.82-4.09,18.97c0,0,0.02-0.12,0.02-0.12c-1.91-0.53-2.67-1.9-2.08-3.67c5.9-17.88,3.53-37.38,10.87-54.97
		c0.1-0.93,0.2-1.85,0.29-2.78c4.32-9.88,8.64-19.77,12.97-29.65l-0.04-0.01c2.11-1.62,2.75-4.09,3.68-6.4c0.5-1.08,1-2.16,1.5-3.24
		c13.63-19.99,11.59-41.89,7.85-64.01c0.54-12.4-3.19-24.02-6.69-35.66c-2.96-9.85-5.43-19.42-3.72-30.17
		c1.77-11.1,5.37-21.47,8.66-32.04c3.95-12.69,8.24-25.27,1.45-38.52c-4.59-8.95-6.7-10.05-13.78-2.96
		c-19.65,19.65-29.74,42.21-19.82,70.42c9.9,28.12,4.9,53.52-13.85,76.73c-8.3,10.28-15.62,21.28-17.78,35.05
		c-3.12,19.86-0.73,39.27,2.59,58.81c1.38,8.12,3.46,16.3,1.56,24.87c-2.41,10.85-7.44,20.11-14.49,28.51
		c-18.67,22.24-37.32,44.5-41.5,74.78c-0.8,0.01-1.6,0.02-2.39,0.03c1.3-19.81,10.26-36.62,21.41-52.28
		c7.97-11.19,17.46-21.29,25.56-32.4c4.92-6.75,9.34-14.6,8.66-23.18c-0.78-9.91-1.56-19.86-3.4-29.75
		c-5.81-31.31-4.83-61.31,17.62-87.27c18.33-21.2,22.02-45.54,13.23-72.11c-2.1-6.35-3.17-13.15-3.87-19.84
		c-2.39-22.97,9.85-39.48,24.77-54.73c2.99-3.06,9.88-5.4,2.64-11l0.02,0.02c-0.19-0.42-0.28-0.85-0.28-1.31
		C424.8,132.17,426.16,140.19,431.7,139.49z"/>
	<path class="st4" d="M260.15,446.03c-8.48-0.32-18.44-9.81-18.34-17.45c0.22-17.07-5.96-32.89-9.07-49.29
		c-0.87-4.55-4.44-8.56-6.61-12.9c-3.97-7.95-1.03-16.83,7.23-20.05c5.53-2.15,10.68,1.64,15.11,3.97
		c8.12,4.26,13.64,11.93,16.13,20.58c5.28,18.32,9.61,36.91,9.09,56.24c-0.09,3.24-0.3,5.82-4.55,6.1c-4.79,0.31-6.69,3.46-5.61,7.9
		C264.6,445.59,262.64,446.45,260.15,446.03z"/>
	<path class="st4" d="M457.66,379.39c-4.14-24.52,11.28-39.3,26.83-54.04c1.76-1.67,2.88-2.64,5.16-0.19
		c11.66,12.57,14.76,25.84,6.87,42.07c-4.18,8.59-6.16,18.36-10.54,27.05c-2.74,5.43-6.3,10.05-12.61,11.79
		c-7.37,2.04-15.17-2.96-15.64-10.48C457.39,390.22,457.66,384.79,457.66,379.39z"/>
	<path class="st3" d="M312.65,517.24c0.8-0.01,1.6-0.02,2.39-0.03c20.43-0.82,39.7-5.63,57.68-15.71
		c9.63-5.4,13.04-14.02,13.83-23.99c0.58-7.32,3.28-13.58,6.93-19.66c2.07-1.39,3.46-3.23,3.88-5.74c0,0-0.02,0.12-0.02,0.12
		c12.11-16.74,32.9-23.27,45.88-39c0.37-0.45,1.4-0.37,2.12-0.53c0.33,1.83-2.01,4.03,0.76,5.52c-2.34,8.39-11.47,10.72-15.61,17.51
		c-18.17,9.91-31.79,23.32-34.77,44.98c-2.61,19.02-16.89,26.44-32.21,33.72c-14.01,6.66-29.53,6.54-43.73,11.78
		c-1.01,0.37-2.14,0.41-3.16,0.76c-14.9,5.1-14.97,5.14-20.86-9.15c-5.52-13.38-16.58-23.39-22.09-36.76
		c-0.41-0.99-0.77-2-1.16-3.01c3.67-0.27,3.41-3.23,3.88-5.68c7.11,8.47,9.94,20,19.2,26.93c0,0-0.06-0.06-0.06-0.06
		c0,0.54,0.08,1.06,0.26,1.56c0.84,7.29,7.83,11.65,8.99,18.79C307.93,520.58,310.16,518.47,312.65,517.24z"/>
	<path class="st9" d="M255.49,141.52c-5.5-0.34-8.6-2.12-9.08-8.73c-0.58-8.02-6.5-14.58-8.29-22.61c-1-4.5-0.5-7.29,3.83-7.71
		c7.47-0.74,11.33-8,18.53-9.33c2.94-0.54,3.76-4.8,1.22-6.53c-4.14-2.82-2.38-5.98-1.95-9.27c3.63-0.16,6.8,1.23,10.04,2.67
		c5.82,2.58,10.89,6.45,17.24,8.32c7.2,2.12,10.29,9.04,13.04,15.6c1.47,3.49-1.18,4.93-3.49,6.25
		c-12.95,7.43-22.25,18.13-28.3,31.67c-1.11,2.49-2.08,3.97-4.48,1.66C261.35,141.14,258.49,141.23,255.49,141.52z M280.35,113.9
		c10.44-5.56,10.54-9.76,2.4-17.22c-1.57-1.44-3.3-3.61-5.48-1.87c-2.37,1.9-0.59,4.07,1.04,5.41
		C282.32,103.52,283.65,107.41,280.35,113.9z"/>
	<path class="st7" d="M191.55,364.2c-5.91,1.45-8.78,6.91-13.33,10.15c-11.22,8.9-16.65,22.41-26.04,32.77
		c-5.12,5.16-5.83,11.95-6.88,18.61c0,0,0.27-0.02,0.27-0.02c-2.35,2.96-2.98,6.42-2.93,10.07c-0.5,0.29-0.58,0.67-0.26,1.15
		c0,0-0.71-0.14-0.71-0.14s-0.73,0.03-0.73,0.03c-0.18-0.45-0.51-0.63-0.99-0.52c-1.9-1.44-3.76-2.95-5.71-4.32
		c-6.94-4.89-8.88-11.31-5.42-19.06c2.64-5.93,6.02-11.45,10.06-16.55c0,0,0.37-0.34,0.37-0.34c19.85-18.42,41.44-34.91,60.3-54.42
		c2.06-2.13,3.77-4.62,5.42-7.09c5.77-8.69,10.08-8.86,16.85-0.63c0.48,0.59,1.37,0.84,2.06,1.25c-0.8,14.21-13.4,16.27-22.57,21.79
		C197.78,359.03,193,359.34,191.55,364.2z"/>
	<path class="st7" d="M533.14,361.68c14.04,4.19,25.1,13.04,35.2,23.11c13.03,13,12.66,20.35,5.22,37.43
		c-7.01,16.09-17.85,27.67-32.15,36.8c-0.11-0.75-0.21-1.51-0.32-2.26c8.27-12.8,6.35-28.27,11-42.01c0.78-2.32,0.91-4.34,3.41-6.48
		c4.19-3.6,0.46-8.49-1.65-12.31c-5.34-9.68-7.87-21.38-19.5-26.69C531.71,368.07,533.15,364.32,533.14,361.68z"/>
	<path class="st4" d="M525.27,458.74c-6.07,3.67-11.54,3.83-16.05-2.57c-6.06-8.59-6.33-15.53-1.11-21.75
		c10.54-12.58,17.53-26.85,20.55-43.1c0.56-3-0.52-8.03,4.49-8.37c4.94-0.33,5.72,4.3,6.75,7.79c1.06,3.59,1.69,7.36,2.01,11.1
		c1.03,11.98-3.36,23.16-5.38,34.69C532.78,443.94,529.02,451.34,525.27,458.74z"/>
	<path class="st4" d="M184.02,481.69c-10.04-2.24-16.02-7.99-19.88-15.47c-5.54-10.74-10.62-21.59-12.65-33.94
		c-1.88-11.46,5.05-18.47,10.32-26.18c2.66-3.89,3.43,0.93,3.63,2.99c0.87,8.94,1.53,18.08,7.91,25.06
		c7.67,8.39,11.45,19.61,20.28,27.1c1.63,1.39,3.51,2.91,2.63,5.46c-1.19,3.46-3.62,0.86-5.46,0.88
		C181.38,467.64,179.64,470.62,184.02,481.69z"/>
	<path class="st5" d="M227.19,509.07c5.2,5.07,10.48,10.07,15.58,15.24c12.59,12.75,16.55,28.53,16.71,45.96
		c0.16,17.3,3.06,34.32,5.89,51.39c2.37,14.36,2.89,29.02,4.22,43.55c-1.81,1.3-4.08,2.13-4.98,4.44c1.85,1.25,4.68-0.66,5.87,2.63
		c-2.95-0.33-4.61,4.52-8.1,1.42c-3.32-33.48-9.69-66.74-7.44-100.64c0.36-5.4-0.14-10.79-1.58-16.06
		c1.17-13.77-9.11-22.07-15.41-32.27c-12.78,0.21-12.11-16.29-23.07-18.64c-1.7-0.36-2.41-3.41-1.46-5.73
		c2.41,1.29,4.82,2.59,7.23,3.88c0,0-0.03-0.02-0.03-0.02C222.36,506.45,224.35,508.34,227.19,509.07z"/>
	<path class="st4" d="M524.09,360.01c-4.79,17.61-5.52,36.48-14.63,52.73c-2.6,4.64-8.78,7.69-15.16,7.39
		c-3.03-0.15-5.56-0.12-4.74-5.07c0.5-3.04-0.4-6.47,1.97-8.94c15.9-16.58,17.81-37.97,20.6-59.09c0.26-1.97-1.01-4.86,1.89-5.52
		c2.72-0.62,4.65,1.48,5.68,3.74C521.83,349.9,524.46,354.47,524.09,360.01z"/>
	<path class="st11" d="M263.36,349.24c4.55,3.32,7.19,2.19,10.56-2.55c8.84-12.42,20.03-23.25,24.97-38.2
		c0.66-2,0.98-4.12,1.46-6.19c1.46-3.63,1.9-7.42,1.76-11.3c2.39-12,2.09-24.01,0.04-36.01c-0.19-3.85,0.51-7.78-1.18-11.48
		c-0.98-4.77,0.3-9.91-2.39-14.4c0.06-1.75,0.38-3.55-1.03-4.99c-1.61-22.65-1.44-44.97,11.89-64.89c1.9-2.83,2.86-6.64,7.31-6.63
		c-3.69,6.85-8.02,13.44-10.96,20.59c-8.21,20.02-6.65,40.73-2.78,61.36c4.03,21.42,4.72,43.04,1.74,64.45
		c-1.66,11.94-7.42,23.08-15.2,32.75c-4.74,5.89-9.45,11.81-14.14,17.74c-3.77,4.76-6.08,9.56-1.06,15.07
		c1.43,1.57,2.05,3.8,1.74,6.09c-3.91-0.07-3.63-3.7-4.14-5.8C270.49,358.77,265.21,354.97,263.36,349.24z"/>
	<path class="st7" d="M220.65,504.24c-2.41-1.29-4.82-2.59-7.23-3.88c0,0-0.27,0.13-0.27,0.14c-0.67-0.69-1.33-1.37-1.99-2.06
		c0.01-1.09,0.03-2.17,0.04-3.26c3.38-2.18,6.15-4.55,2.73-8.83c-0.41-0.69-0.86-1.35-1.22-2.07c-4.83-9.68-4.63-9.66,6.35-11.69
		c6.6-1.22,13.01-4.95,19.45,0.24c0.62-0.1,1.25-0.2,1.87-0.3c1.04-0.23,2.08-0.47,3.12-0.7c0.41,2.37,0.9,4.74,1.2,7.13
		c0.83,6.49,1.46,12.93-7.73,13.83c-3.75,0.68-7.35,2.94-11.14-0.82c-1.73-1.71-5.32-1.7-7.38,0.35c-2.02,2.01-0.42,4.45,0.47,6.67
		C219.6,500.69,220.08,502.48,220.65,504.24z"/>
	<path class="st7" d="M430.49,435.73c4.14-6.79,13.27-9.12,15.61-17.51c2.69-1.66,4.81-3.12,8.36-0.43
		c4.92,3.72,11.15,2.45,16.96,1.89c-0.96,9.87-8.16,16.38-13.09,24.1c-1.55,2.42-4.55,2.47-6.58,1.34
		c-3.25-1.81-5.95-4.48-6.43-8.63c-0.36-3.08,0.89-6.39-1.16-9.44C438.5,428.38,437.21,436.41,430.49,435.73z"/>
	<path class="st4" d="M145.16,349.91c1.64-6.33,8.32-7.84,11.83-12.38c1.55-2.01,5.42-3.44,3.98-6.23
		c-1.39-2.69-4.76-1.18-7.29-0.36c-1.3,0.42-2.56,0.78-4.12-1.1c10.31-4.56,19.99-9.88,26.9-18.96c1.71-2.24,3.13-1.39,4.28,0.66
		c1.08,5.38-3.78,8.14-5.79,11.99c-5.49,10.48-12.9,19.78-21.07,28.42c-1.34,1.42-2.56,2.96-4.74,1.37
		c-0.14-2.33-0.98-3.89-3.7-3.42L145.16,349.91z"/>
	<path class="st9" d="M236.96,492.78c9.2-0.91,8.56-7.34,7.73-13.83c-0.31-2.39-0.8-4.75-1.2-7.13c-0.09-3.4-0.34-6.08-3.25-9.16
		c-4.69-4.98,2.88-8.31,3.29-14.83c4.25,9.49,11.61,9.11,18.28,10.24c1.93,0.33,3.77-4.09,5.85,0.06c1.68,3.35-2.52,3.91-2.59,6.32
		c-5.78,1.38-10.36-1.66-15.08-4.12c-1.38-0.72-2.76-2.29-4.26-1.03c-1.41,1.19-0.39,2.94-0.02,4.5c1.76,7.54,4.69,14.88,4.06,22.84
		c-0.25,3.11,0.96,7.03-2.73,8.6C243.44,496.77,239.64,496.41,236.96,492.78z"/>
	<path class="st10" d="M295.58,499.32c-9.27-6.93-12.09-18.45-19.2-26.93c0,0-0.35-0.67-0.35-0.67c-0.45-1.08-0.89-2.15-1.34-3.23
		c0.36-0.05,0.7-0.15,1.03-0.31c4.31-1.65,10.25,3.19,13.32-3.36c2.4-0.24,3.31,1.75,4.65,3.1
		C291.59,478.55,293.24,488.96,295.58,499.32z"/>
	<path class="st9" d="M253.01,265.08c0-1.62-0.02-3.25,0.01-4.87c0.04-1.95,0.29-3.97,2.35-4.78c2.08-0.82,3.61,0.59,4.94,1.99
		c3.97,4.15,6.4,9.3,8.86,14.36c1.14,2.34-7.48,13.08-10.16,13.07c-2.46-0.01-3.15-2.04-3.58-3.79
		C254.14,275.82,252.66,270.58,253.01,265.08z"/>
	<path class="st9" d="M289.04,464.82c-3.07,6.55-9.01,1.72-13.32,3.36c-3.53-4.18-1-5.78,2.88-6.81c3.49,0.19,6.99,0.38,10.48,0.57
		C289.07,462.9,289.05,463.86,289.04,464.82z"/>
	<path class="st7" d="M525.27,458.74c3.76-7.4,7.51-14.8,11.27-22.2C537.46,446.31,532.64,453.18,525.27,458.74z"/>
	<path class="st12" d="M282.39,282.75c-1.56,7.42-7.57,11.19-12.81,15.59C269.31,289.42,275.23,285.58,282.39,282.75z"/>
	<path class="st3" d="M145.3,425.73c1.05-6.66,1.76-13.45,6.88-18.61C152.65,414.34,151.65,421.02,145.3,425.73z"/>
	<path class="st7" d="M165.68,355.79c1.01,0.15,2.03,0.29,3.04,0.44c-3.31,3.25-6.62,6.5-9.92,9.76c-0.5-0.02-0.99-0.04-1.49-0.06
		c-0.34-0.34-0.65-0.71-0.91-1.12C159.87,362.19,161.5,357.68,165.68,355.79z"/>
	<path class="st7" d="M481.05,426.04c-4.3-0.48-5.25-5.96-9.56-6.44c3.26-4.05,5.77-4.37,7.33,1.34
		C479.32,422.71,480.3,424.34,481.05,426.04z"/>
	<path class="st5" d="M181.77,253.55c-0.16-1.58-0.32-3.16-0.48-4.74c1.74-1.03,3.49-2.06,6.05-3.58
		C187.19,249.95,186.15,252.85,181.77,253.55z"/>
	<path class="st5" d="M213.92,486.34c3.43,4.28,0.66,6.65-2.73,8.83C210.96,491.88,210.15,488.4,213.92,486.34z"/>
	<path class="st5" d="M183.45,286.4c0.02-0.68,0.03-1.36,0.05-2.05c2.4-0.4,2.34-4.38,6.11-3.76
		C188.6,283.94,188.15,287.19,183.45,286.4z"/>
	<path class="st4" d="M520.18,473.8c-0.56-0.7-1.12-1.4-1.67-2.1c3.16-1.32,6.45-1.91,9.87-1.76
		C526.61,473.3,523.27,473.28,520.18,473.8z"/>
	<path class="st3" d="M142.63,435.78c-0.05-3.66,0.58-7.11,2.93-10.07C144.87,429.15,148.4,433.82,142.63,435.78z"/>
	<path class="st12" d="M269.61,298.81c-2.19,2.86-4.39,5.72-6.58,8.59C262.74,302.63,264.88,299.73,269.61,298.81z"/>
	<path class="st5" d="M186.63,238.05c-0.71,0.67-1.23,1.15-1.74,1.63c-0.46-0.55-1.27-1.09-1.27-1.64c0-0.54,0.82-1.09,1.27-1.63
		C185.41,236.9,185.92,237.38,186.63,238.05z"/>
	<path class="st4" d="M541.08,456.76c0.11,0.75,0.21,1.51,0.32,2.26c-0.35,1.85-1.54,2.71-3.33,2.89
		C537.79,459.45,539.1,457.91,541.08,456.76z"/>
	<path class="st5" d="M193.95,274.24c-0.19,0.44-0.38,0.88-0.57,1.32c-0.44-0.19-1.12-0.29-1.24-0.6c-0.12-0.32,0.31-0.85,0.5-1.29
		C193.07,273.86,193.51,274.05,193.95,274.24z"/>
	<path class="st5" d="M204.51,279.52c1.19,0.79,1.57,1.95,1.47,3.32C203.89,282.44,201.98,281.96,204.51,279.52z"/>
	<path class="st3" d="M274.69,468.49c0.45,1.07,0.89,2.15,1.34,3.23C274.33,471.16,271.34,471.14,274.69,468.49z"/>
	<path class="st9" d="M145.45,349.92c2.72-0.47,3.56,1.09,3.7,3.42C146.9,353.29,145.17,352.68,145.45,349.92z"/>
	<path class="st5" d="M124.42,206.29c0.21,1.39,0.08,2.65-1.25,3.49C122.6,208.27,121.29,206.49,124.42,206.29z"/>
	<path class="st4" d="M533,468.01c-0.52,0.05-1.02,0.18-1.49,0.41c0.05-2.21,1.38-3.13,3.39-3.36
		C534.27,466.04,533.63,467.03,533,468.01z"/>
	<path class="st11" d="M418.95,133.23c-1-1.14-2-2.27-3-3.41C418.23,129.84,419.24,130.97,418.95,133.23z"/>
	<path class="st5" d="M128.57,337.71c0.19,0.07,0.38,0.13,0.57,0.2c-0.08,0.22-0.11,0.47-0.25,0.63c-0.05,0.06-0.36-0.11-0.55-0.18
		C128.41,338.15,128.49,337.93,128.57,337.71z"/>
	<path class="st3" d="M269.39,472.21c-0.42-1.3-0.85-2.59-1.27-3.89C269.38,469.34,269.39,470.78,269.39,472.21z"/>
	<path class="st4" d="M531.66,468.3c-1.13,0.57-2.26,1.14-3.4,1.71C528.82,468.3,530.25,468.32,531.66,468.3z"/>
	<path class="st5" d="M211.16,498.43c0.66,0.69,1.32,1.37,1.99,2.06C211.92,500.35,211.32,499.61,211.16,498.43z"/>
	<path class="st9" d="M240.38,472.52c-0.62,0.1-1.25,0.2-1.87,0.3C239.04,472.15,239.64,471.91,240.38,472.52z"/>
	<path class="st4" d="M536.52,463.43c-0.58,0.58-1.16,1.16-1.74,1.74C535.36,464.59,535.94,464.01,536.52,463.43z"/>
	<path class="st4" d="M538.15,461.81c-0.58,0.57-1.15,1.15-1.73,1.72C537,462.96,537.57,462.39,538.15,461.81z"/>
	<path class="st13" d="M430.23,1265.77c-0.83,0-1.65,0.01-2.48,0.01c-4.7-3.76-11.65,0.59-16-4.44c-0.87-1.62-2.29-1.39-3.73-1.1
		c-0.79-0.86-1.57-1.72-2.36-2.58c0.17-1.51,0.01-2.91-1.39-3.86c-0.24-0.66-0.47-1.32-0.71-1.98c-2.49-16.82-4.78-33.66-7.55-50.43
		c-1.17-7.07-0.53-13.98-0.08-21c1.24-19.36-2.69-38.29-5.39-57.27c-2.83-19.88-5.77-39.8-3.32-59.81
		c1.77-14.48,4.91-28.73,4.06-43.48c-1.15-20.04-3.87-39.82-8.63-59.31c-0.62-2.56-2.13-4.9-3.23-7.34
		c-2.02-8.72-3.01-17.51-3.21-26.51c-0.24-11.34-1.39-22.79-4.9-33.6c-5.16-15.9-12.39-31.05-16.04-47.55
		c-1.47-6.63-2-8.43,5.85-7.13c14.52,2.4,29.16,2.98,42.74-4.67c2.17-1.22,4.82-2.35,3.3-5.39c-1.44-2.89-4.19-2.08-6.37-0.89
		c-14.33,7.81-29.23,6.22-44.29,3c-7.14-1.53-14.28-2.68-21.53-0.21c-12.24,4.16-23.93,1.98-35.37-3.28
		c-3.18-1.46-6.6-2.45-9.98-3.37c-2.13-0.58-4.67-0.61-5.57,1.91c-0.92,2.57,0.98,4.07,3.21,4.74c11.85,3.58,23.11,9.28,35.95,9.23
		c10.73-0.04,11.1,1.08,8.12,11.9c-2.29,8.33-7.87,15.28-9.43,23.84c-10.63,32.04-22.65,63.55-24.93,97.91
		c-1.43,21.57-9.77,42.09-14.19,63.26c-7.62,36.54-18.75,72.21-26.32,108.79c-4.33,20.92-5.95,42.42-12.69,62.83
		c-3.56,10.77-7.49,21.42-11.23,32.12c-3.19,9.13-10.45,15.26-17.31,21.09c-10.6,9.02-29.65-0.16-29.99-15.39
		c-0.63-28.47-3.52-57.01,7.99-84.96c6.91-16.77,7.93-35.86,12.9-53.54c9.08-32.32,11.06-66.13,21.25-98.16
		c2.77-8.7,3.15-17.48,2.5-26.42c1.73-6.02,2.16-12.22,2.65-18.43c0.96-12.39,1.1-24.96,4.6-36.96c8.29-28.49,7.65-57.7,7.79-86.87
		c1.09-1.12,1.12-2.38,0.47-3.72c2.16-6.91,1.88-14.13,2.69-21.21c1.28-3.29,1.81-6.71,1.75-10.23c0.07-0.56,0.14-1.11,0.21-1.67
		c9.59-15.12,4.91-32.79,8.76-48.94c0.11-0.51,0.21-1.02,0.32-1.52c0.04-0.55,0.08-1.11,0.13-1.67c0.12-2.14,0.24-4.28,0.36-6.41
		c2.44-8.65,1.98-17.54,2.25-26.37c1.64-4.15,1.17-8.42,0.78-12.69c0.01-0.57,0.02-1.14,0.03-1.72c0.02-1.58,0.05-3.17,0.07-4.75
		c0.15-2.7,0.27-5.41,0.46-8.11c1-14.15,4.51-15.59,18.78-13.18c18.06,3.06,36.06,6.46,54.12,9.48c14.31,2.39,28.67-0.51,43-0.84
		c18.96-0.44,37.83,1.12,56.75,1.11c7.19,0,10.9,3.56,10.76,11.19c-0.13,7.82-1.24,15.63-1.3,23.46c-0.18,22.78,2,45.49,2.55,68.23
		c1.4,58,1.5,116.02,2.33,174.04c0.19,13.53,1.25,27.05,1.91,40.58c-0.04,8.1-0.07,16.19-0.11,24.29l-0.14,0.41
		c-3.02,3.27-1.93,7.32-1.4,10.83c2.46,16.15,1.46,32.41,1.82,48.61c0.71,32.22-3.43,64.16-6.13,96.19
		c-1.7,20.11-4.88,40.26-0.72,60.59c1.08,5.26,3.31,12-3.34,16.22C437.73,1262.19,433.88,1263.59,430.23,1265.77z"/>
	<path class="st9" d="M258.12,1291.92c-6.24,8.35-13.08,16.23-18.48,25.23c-2.54,4.24-5.07,4.28-7.53-0.96
		c-4.38-9.33-8.32-18.38-5.05-29.08c1.27-4.16-0.25-8.52-1.83-12.58c-1.07-2.75-2.56-5.46-0.48-8.38c9.21-6.95,16-15.18,20.04-26.58
		c7.51-21.17,14.14-42.75,18.93-64.45c4.73-21.44,8.48-43.29,12.34-65.02c2.5-14.06,7.08-27.73,10.42-41.65
		c4.78-19.96,9.28-39.99,13.9-59.98c0.73-0.01,1.46-0.02,2.19-0.03c-6.5,38.53-3.58,77.36-3.14,116.06
		c0.13,11.34,4.04,22.93,7.8,33.87c4.31,12.55,8.88,25,12.39,37.81c0.93,3.39,1.68,6.94,4.33,9.5c2.05,1.99,1.91,3.31-0.3,5.2
		c-26.68,22.75-41.96,54.8-65.32,80.27C258.17,1291.32,258.18,1291.66,258.12,1291.92z"/>
	<path class="st9" d="M188.09,917.56c-4.51-19.46-4.85-39.32-2.95-58.92c1.65-17.03,9.34-32.79,16.63-48.09
		c6-12.58,33.31-19.74,43.87-13.25c-1.88,14.6-2.77,29.25-2.14,43.97c-2.35,3.45-1.52,7.4-1.74,11.18c-0.45,2.1-0.94,4.19-1.35,6.3
		c-3.86,19.93-4.02,40.3-7.66,60.31c-3.6,19.79-5.06,39.97-7.46,59.98c-1.98,4.89,0.3,11.59-6.4,14.66
		c-12.33-21.43-22.66-43.66-27.87-68c-0.29-1.36-0.6-2.61-1.92-3.34c-0.17-0.62-0.34-1.25-0.52-1.87
		C188.41,919.52,188.25,918.54,188.09,917.56z"/>
	<path class="st14" d="M217.48,1274.75c5.21,4.88,4.07,11.23,2.55,16.71c-2.1,7.57-0.29,13.73,3.46,20.03
		c5.93,9.95,9.93,20.48,8.09,32.4c-1.59,10.28-3.43,12.42-13.63,11.83c-24.83-1.43-49.64-3.34-74.43-5.42
		c-4.49-0.38-8.87-2.33-13.23-3.76c-3.08-1.01-5.62-10.62-3.59-14.44c9.26-17.43,19.81-33.7,39.33-41.44
		c7.1-2.82,8.8-9.21,9.43-15.76c0.27-2.81-0.3-5.39,2.93-6.67c5.99,7.66,6.68,7.67,12.09,0.03c0.6-0.85,1.28-2.4,2.15-1.66
		c5.1,4.38,13.38,0.68,17.64,7.21C212.06,1276.59,214.87,1275.91,217.48,1274.75z"/>
	<path class="st9" d="M372.2,940.41c-12.83-7.47-25.59-7.2-38.15,0.54c-10.67,6.58-11.19,7.37-25.73,32.38
		c1.07-8.57,1.24-15.49,2.88-22.04c6.22-24.86,11.75-49.92,20.42-74.1c2.17-6.07,0.91-12.2,1.52-18.27c0.08-0.9,0.15-1.8,0.23-2.7
		c0.18-0.69,0.35-1.38,0.53-2.07c1.4-4.62,2.86-9.23,4.17-13.88c0.97-3.45,2.7-6.18,6.63-5.72c3.78,0.44,4.39,3.66,4.25,6.75
		c-0.4,8.85,1.82,17.19,5.22,25.15c6.92,16.15,11.86,32.99,17.88,49.45c1.2,3.27,3.15,7.26,0.77,10.08
		C368.58,930.99,370.91,935.56,372.2,940.41z"/>
	<path class="st12" d="M333.36,856.23c-0.08,0.9-0.15,1.8-0.23,2.7c-2.43,6.33-5.28,12.37-11.23,16.28
		c1.56-8.56,7.13-15.51,9.43-23.84c2.98-10.81,2.61-11.94-8.12-11.9c-12.85,0.05-24.1-5.66-35.95-9.23
		c-2.23-0.67-4.12-2.17-3.21-4.74c0.9-2.53,3.44-2.5,5.57-1.91c3.39,0.92,6.81,1.92,9.98,3.37c11.44,5.25,23.13,7.44,35.37,3.28
		c7.25-2.47,14.39-1.32,21.53,0.21c15.06,3.22,29.97,4.81,44.29-3c2.18-1.19,4.93-2,6.37,0.89c1.51,3.04-1.13,4.16-3.3,5.39
		c-13.58,7.66-28.22,7.07-42.74,4.67c-7.86-1.3-7.32,0.5-5.85,7.13c3.65,16.5,10.88,31.65,16.04,47.55
		c3.51,10.81,4.65,22.26,4.9,33.6c0.19,9,1.19,17.79,3.21,26.51c-5.73-2.38-4.29-8.82-7.23-12.78c-1.29-4.85-3.62-9.42,0.61-14.42
		c2.38-2.82,0.43-6.81-0.77-10.08c-6.02-16.46-10.96-33.3-17.88-49.45c-3.41-7.95-5.62-16.3-5.22-25.15
		c0.14-3.09-0.47-6.3-4.25-6.75c-3.93-0.46-5.66,2.27-6.63,5.72c-1.3,4.65-2.77,9.25-4.17,13.88
		C333.72,854.84,333.54,855.54,333.36,856.23z"/>
	<path class="st12" d="M243.5,841.27c-0.63-14.72,0.26-29.37,2.14-43.97c1.65,1.99,1.19,5.44,4.4,6.35
		c-0.07,0.56-0.14,1.11-0.21,1.67c-2.78,3.03-0.88,6.87-1.75,10.23c-0.81,7.08-0.53,14.3-2.69,21.21c-0.16,1.24-0.31,2.48-0.47,3.73
		c-0.14,29.18,0.5,58.39-7.79,86.87c-3.49,12.01-3.64,24.57-4.6,36.96c-0.48,6.21-0.92,12.41-2.65,18.43
		c-2.7,4.99-0.14,10.51-1.63,15.99c-3.11-6.47-2.29-13.2-2.97-19.7c2.4-20.01,3.86-40.19,7.46-59.98
		c3.64-20.02,3.81-40.38,7.66-60.31c0.41-2.11,0.89-4.2,1.35-6.3C244.99,849.13,242.96,845,243.5,841.27z"/>
	<path class="st12" d="M405.66,1257.66c0.79,0.86,1.57,1.72,2.36,2.58c1.24,0.37,2.48,0.73,3.73,1.1c4.35,5.03,11.3,0.68,16,4.44
		c-6.28,0.1-12.71,1.09-18.27-3.09c-9.3,0.36-6.24-6-5.92-10.87c0.23,0.66,0.47,1.32,0.71,1.98
		C404.36,1255.22,404.32,1256.69,405.66,1257.66z"/>
	<path class="st5" d="M302.57,1008.44c-0.73,0.01-1.46,0.02-2.19,0.03c2.26-5.65,1.21-12.09,4.45-18.24
		C306.12,996.99,303.65,1002.64,302.57,1008.44z"/>
	<path class="st3" d="M188.58,920.5c0.17,0.62,0.34,1.24,0.52,1.87C187.62,922.11,187.17,921.56,188.58,920.5z"/>
	<path class="st9" d="M526.34,945.14c-0.22,0.28-0.32,0.6-0.29,0.95c-7.64,11.8-11.02,25.25-13.34,38.73
		c-2.22,12.9-8.19,24.52-10.84,37.27c-1.78,8.59-6.54,17.94-6.22,25.6c0.74,18.03-7.04,34.44-6.41,52.21
		c0.63,17.82-1.84,35.86,2.17,53.41c4.33,18.95,8.45,38.07,15.92,56.11c7.24,17.48,9.51,36.7,19.34,53.27
		c3.18,5.37-3,8.63-5.54,7.89c-10.02-2.94-20,0.08-29.87-1.23c-1.8-0.24-3.51-1.22-5.25-1.86c-0.63,0.08-1.27,0.17-1.9,0.25
		c0,0,0.05,0.01,0.05,0.01c-0.95-9.71-3.82-18.96-8.2-27.53c-4.3-8.4-6.2-18.61-15.87-23.44c0-0.91,0.01-1.82,0.01-2.73
		c0.09-0.16,0.29-0.38,0.24-0.49c-0.12-0.29-0.35-0.53-0.53-0.8c-0.55-1.47-1.52-2.31-3.17-2.2c-0.51-0.04-1.02-0.06-1.53-0.08
		c0.03-24.12,3.58-48.03,5.67-71.96c3.06-35.03,2.45-69.73-0.56-104.57c-0.19-2.16,0-4.42-2.39-5.61c-0.14-1.69-0.28-3.38-0.42-5.07
		c0.06-0.52,0.11-1.04,0.17-1.55c0.74-2.87,2.05-5.72,2.14-8.61c0.71-21.68,0.23-43.36-0.7-65.02c-0.96-22.45-3.69-44.84-2.57-67.37
		c0.09-1.88,0.56-3.91-0.85-5.45c-5.29-5.79-4.12-12.65-2.88-19.27c2-10.73,2.26-21.48,2.11-32.36
		c-0.45-34.39-5.07-68.64-3.35-103.12c0.59-11.86,1.61-23.77,0.19-35.66c1.01-21.36-2.02-42.54-2.96-63.81
		c-1.28-28.9,0.73-57.75,1.35-86.63c0.17-7.63,2.99-12.23,10.01-14.56c6.37,8.7,5.6,19.17,6,28.89
		c1.77,43.07,2.59,86.19,1.84,129.31c-0.26,14.9-1.49,29.81-1.08,44.69c0.29,10.39-0.33,20.57-1.61,30.81
		c-0.33,2.67-0.72,7.79,4.59,3.04c18.9,8.51,35.52-1.88,52.63-6.74c23.56-6.68,44.27-19.73,66-30.61
		c15.87-7.95,27.67-20.75,42.1-30.13c18.43-11.97,34.48-27.01,52.7-39.24c13.08-8.78,19.56-23.67,29.64-35.29
		c8.87-10.22,13.02-22.98,18.31-35.08c3.04-6.96,7.13-12.6,15.07-15.9c1.25,4.16,0.41,8.24-0.5,12.27
		c-4.81,21.32-15.93,39.51-28.45,56.98c-5.55,7.74-10.02,16.07-14.1,24.64c-8.12,17.05-19.53,31.56-32.25,45.51
		c-10.09,11.07-22.25,18.37-34.4,26.46c-32.69,21.78-67.28,39.27-104.71,51.16c-1.81,0.57-3.59,1.27-5.43,1.68
		c-8.46,1.85-10.3,5.97-5.52,13.62c5.12,8.21,12.47,14.94,16.17,24.12c0.46,1.55,0.93,3.1,1.4,4.65c0.64,4.98,0.7,10.07,2.99,14.72
		c0.44,1.65,0.87,3.29,1.31,4.94c-0.64,18.63-0.78,37.27-2.82,55.85c-1.11,10.11-7.25,18.69-8.09,28.8
		c-0.78,2.66-1.56,5.32-2.33,7.98C527.63,939.38,526.53,942.08,526.34,945.14z"/>
	<path class="st14" d="M494.94,1338.65c-13.4,2.73-26.75,2.32-40.3,0.56c-20.3-2.63-40.39,1.81-60.58,3.17
		c-10.95,0.74-11.23,0.2-8.77-10.28c2.55-10.88,8.83-19.63,15.23-28.32c6.38-8.67,11.54-17.56,10.53-28.97
		c-0.49-5.55,2.66-7.51,8.2-6.85c9.64,1.15,19.33,1.87,29.01,2.67c3.33,0.27,7.6,1.73,7.13-4.36c0,0-0.15-0.01-0.15-0.01
		c0.43-0.45,0.86-0.89,1.28-1.34c0.55,0.46,1.09,0.92,1.64,1.39c6.46,12.26,12.7,24.65,19.49,36.72c3.48,6.2,8.77,11.43,8.36,19.34
		c-0.13,2.47,2.1,3.18,4.03,4.33C494.41,1329.34,496.56,1333.34,494.94,1338.65z"/>
	<path class="st4" d="M627.1,1322.48c-2.44-3.14-0.85-6.42-2.1-9.16c-1.03-2.26-1.86-4.76-4.95-4.53c-3.19,0.24-4.67,2.43-5.14,5.37
		c-0.17,1.06,0.23,2.3-0.18,3.22c-1.53,3.43,5.75,9.71-3.11,10.6c-12.26,1.23-19.69-2.67-20.87-10.4
		c-0.93-6.14-0.74-12.37-2.13-18.53c-2.15-9.55-7.83-16.51-14.82-22.68c-4.22-3.73-3.81-5.99,1.66-7.54
		c9.78-2.76,19.54-4.86,29.22,0.16c1.57,0.81,6.36,1.22,1.11,4.42c-1.52,0.92,0.85,2.7,1.72,3.91c0.89,1.23,2.17,1.82,3.33,0.4
		c2.06-2.51,3.61-2.08,6-0.06C626.72,1286.02,632.59,1309.81,627.1,1322.48z"/>
	<path class="st4" d="M519.4,1339.21c-7.5,1.49-12.02-2.31-15.12-10.04c-5.15-12.82-10.84-25.31-8.96-39.69
		c0.49-3.73-0.46-8.25,4.84-8.77c5.17-0.5,11.18-4.93,15.25,2.18c0.83,1.45,1.51,3.47,3.14,3.35c8.92-0.64,10.13,6.35,12.62,12.22
		c4.11,9.69,9.74,18.67,12.79,28.88c1.63,5.45,0.12,8.19-5.29,9.3C532.58,1337.88,526.55,1339.48,519.4,1339.21z"/>
	<path class="st4" d="M580.46,1318.91c0,2.17-0.03,4.34,0.01,6.5c0.05,2.56-0.94,4.11-3.72,4.19c-2.38,0.07-3.77-0.62-4.9-3.11
		c-5.45-12.01-5.58-12.06-17.89-9.56c-2.49,0.51-2.54-0.97-3.29-2.31c-6.33-11.34-10.41-23.76-17.09-35
		c-2.15-3.63,2.9-6.7,6.74-7.16c6.94-0.82,13.22,1.35,19.12,5.28C574.23,1287.6,581.49,1301.09,580.46,1318.91z"/>
	<path class="st12" d="M460.54,1243.38c0.31,5.85-1.68,11.84,1.06,17.55c0.17,2.64-2.52,3.45-3.44,5.39
		c-0.55-0.46-1.09-0.92-1.63-1.39c0,0-0.52-0.49-0.52-0.49c0.14-7.27,0.28-14.55,0.42-21.82c0.07-10.68,0.14-21.36,0.2-32.04
		c1.65-0.12,2.62,0.73,3.17,2.19c0.07,0.43,0.17,0.86,0.29,1.28c0,0.91-0.01,1.82-0.01,2.73c-0.02,2.67-0.75,5.39,0.52,7.98
		c0.06,4.91,0.13,9.82,0.19,14.74C459.97,1240.75,459.94,1242.05,460.54,1243.38z"/>
	<path class="st3" d="M484.18,1269.18c-0.14-0.31-0.33-0.61-0.39-0.94c-0.03-0.14,0.2-0.33,0.32-0.49c0.63-0.08,1.27-0.17,1.9-0.25
		C485.39,1268.06,484.78,1268.62,484.18,1269.18z"/>
	<path class="st5" d="M588.66,705.84c3.34-4.11,7.43-7.01,12.75-7.93C598.86,703.28,594.46,705.68,588.66,705.84z"/>
	<path class="st5" d="M536.61,733.76c2.9-3.4,6.57-5.09,11.06-4.94C545.27,733.34,540.98,733.64,536.61,733.76z"/>
	<path class="st5" d="M547.97,728.63c1.56-3.36,4.6-4.24,7.88-4.71C555.05,728.55,551.52,728.61,547.97,728.63z"/>
	<path class="st5" d="M573.96,714c1.19-2.87,3.52-3.44,6.29-3.11C579.14,713.91,576.73,714.31,573.96,714z"/>
	<path class="st5" d="M559.3,722.15c1.02-0.59,2.04-1.18,3.06-1.77C561.89,721.91,560.69,722.2,559.3,722.15z"/>
	<path class="st5" d="M556.08,723.77c0.58-1.38,1.74-1.57,3.03-1.5C558.52,723.61,557.38,723.85,556.08,723.77z"/>
	<path class="st5" d="M582.1,709.12c0.6-1.33,1.71-1.61,3.02-1.48C584.53,709,583.39,709.21,582.1,709.12z"/>
	<path class="st5" d="M585.39,707.49c0.55-1.37,1.63-1.65,2.95-1.45C587.79,707.41,586.65,707.57,585.39,707.49z"/>
	<path class="st5" d="M603.27,696.1c0.68-1.36,1.87-1.61,3.23-1.49C605.77,695.86,604.62,696.2,603.27,696.1z"/>
	<path class="st5" d="M601.69,697.62c0.45-0.45,0.9-0.89,1.35-1.34C602.6,696.73,602.15,697.17,601.69,697.62z"/>
	<path class="st5" d="M580.47,710.73c0.48-0.48,0.96-0.96,1.43-1.44C581.42,709.77,580.94,710.25,580.47,710.73z"/>
	<path class="st5" d="M572.37,715.82c0.46-0.54,0.93-1.09,1.39-1.63C573.3,714.73,572.83,715.27,572.37,715.82z"/>
	<path class="st9" d="M124.99,1280.7c11.53-7.89,11.59-7.81,22.14,1.54c3.4,3.02,7.99,2.79,13.23,3.39
		c-11.1,8.99-23.51,15.55-30.24,28.06c-1.4,2.61-3.19,5.02-4.65,7.6c-3.09,5.48-6.06,5.69-9.05-0.04
		C112.64,1306.33,117.42,1293.22,124.99,1280.7z"/>
	<path class="st4" d="M54.42,1297.93c2.4,1.53,2.29,6.19,6.61,1.95c4.1-4.03,9.72-3.51,14.82-1.6c3.36,1.25,5.11,4.99,2.05,6.93
		c-7.95,5.05-3.83,11.07-2.49,16.97c0.48,2.1,1.5,4.08,2,6.18c0.55,2.32,0.72,4.36-3,3.62c-4.85-0.97-7.36,2.17-9.43,6
		c-0.94,1.75-1.54,4.89-4.31,3.79c-2.53-1.01-4.11-3.71-3.93-6.61c0.22-3.53,3.69-7.74-2.91-9.31c-0.97-0.23,0.02-2.33,1.06-3.33
		c1.85-1.81,2.02-4.27,0.39-5.85C49.08,1310.59,54.26,1304.35,54.42,1297.93z"/>
	<path class="st4" d="M78.91,1334.81c3.86,5.84,4.98,12.17,10.08,18.93c-6.92-1.39-10.19-4.95-14.92-5.28
		c-2.56-0.18-1.28-3.64-0.11-5.37C75.71,1340.49,78.27,1338.43,78.91,1334.81z"/>
	<path class="st2" d="M112.73,1333.5c-1.6-0.93-2.63-2.21-2.54-4.18C112.77,1329.66,113.38,1331.2,112.73,1333.5z"/>
	<path class="st12" d="M457.41,1023.3c0.14,1.69,0.28,3.38,0.42,5.07c-5.37,3.13-0.73,9.67-5.98,13.42c0-3.86,0-7.71,0-11.57
		c0,0,0.14-0.41,0.14-0.41c2.65-8.08,2.2-16.18,0.11-24.29c-0.66-13.53-1.71-27.05-1.91-40.58c-0.83-58.01-0.93-116.04-2.33-174.04
		c-0.55-22.73-2.73-45.45-2.55-68.23c0.06-7.82,1.17-15.63,1.3-23.46c0.13-7.63-3.57-11.19-10.76-11.19
		c-18.92,0.01-37.79-1.56-56.75-1.11c-14.33,0.34-28.68,3.23-43,0.84c-18.06-3.01-36.06-6.42-54.12-9.48
		c-14.27-2.41-17.78-0.97-18.78,13.18c-0.19,2.7-0.31,5.41-0.46,8.11c-1.78,1.56-1.6,3.14-0.07,4.75c-0.01,0.57-0.02,1.14-0.03,1.72
		c-2.11,4.12-1.37,8.41-0.78,12.69c-0.26,8.83,0.2,17.72-2.25,26.37c-0.48,0-0.97-0.01-1.45-0.01c0,0-0.05-0.06-0.05-0.06
		c0.01-1.05,0.02-2.1,0.03-3.16c0.06-2.2,0.12-4.4,0.17-6.61c2.32-5.43,2.25-10.85-0.02-16.27c1.08-13.55,2.16-27.1,3.25-40.65
		c0.19-0.15,0.54-0.3,0.54-0.45c-0.01-0.42-0.16-0.83-0.26-1.25c0.19-0.98,0.38-1.97,0.58-2.95c3.49,3.1,5.15-1.75,8.11-1.42
		c-1.19-3.29-4.02-1.38-5.87-2.63c0.9-2.31,3.17-3.14,4.98-4.44c0,0,0,0.01,0,0.01c0.4,0.57,0.79,1.15,1.19,1.72
		c21.15,5.27,42.4,9.59,64.42,7.9c3.76-0.29,7.63-0.42,11.22,1c12.16,4.81,25.01,4.78,37.59,4.06c16.21-0.92,32.25-0.99,48.27,1.66
		c0.68-0.08,1.36-0.16,2.04-0.24c3.49-2.19,5.83,1.77,8.93,1.68c2.81,0.63,5.61,1.27,8.42,1.9c1.42,11.89,0.4,23.8-0.19,35.66
		c-1.72,34.48,2.89,68.73,3.35,103.12c0.14,10.88-0.11,21.63-2.11,32.36c-1.23,6.62-2.41,13.47,2.88,19.27
		c1.41,1.55,0.94,3.58,0.85,5.45c-1.11,22.53,1.61,44.92,2.57,67.37c0.93,21.66,1.4,43.34,0.7,65.02c-0.09,2.89-1.4,5.74-2.14,8.61
		C457.52,1022.26,457.47,1022.78,457.41,1023.3z"/>
	<path class="st5" d="M258.28,719c2.27,5.42,2.34,10.85,0.02,16.27C258.29,729.85,258.29,724.42,258.28,719z"/>
	<path class="st5" d="M258.13,741.88c-0.01,1.05-0.02,2.1-0.03,3.16c-0.68-0.09-1.36-0.19-2.05-0.28
		C256.74,743.8,257.43,742.84,258.13,741.88z"/>
	<path class="st5" d="M261.81,676.65c0.1,0.42,0.25,0.83,0.26,1.25c0,0.15-0.35,0.3-0.54,0.45
		C261.62,677.78,261.71,677.21,261.81,676.65z"/>
	<path class="st5" d="M451.67,684.89c-2.81-0.63-5.61-1.27-8.42-1.9c1.9-7.05,0.27-14.05-1-20.86c-3.71-19.89-2.05-39.87-1.81-59.85
		c0.23-18.93-1.11-37.96,0.51-56.76c1.21-14.15,2.59-29.54,16.94-38.48c-1.4,4.65,0.34,8.76,2.18,12.85
		c-7.02,2.33-9.84,6.93-10.01,14.56c-0.62,28.87-2.63,57.73-1.35,86.63C449.65,642.35,452.68,663.52,451.67,684.89z"/>
	<path class="st5" d="M457.91,506.99c0.21-2.28,1.54-3.01,3.67-2.65C461.33,506.57,460.05,507.37,457.91,506.99z"/>
	<path class="st5" d="M258.15,745.09c0.48,0,0.97,0,1.45,0.01c-0.12,2.14-0.24,4.28-0.36,6.41
		C257.55,749.6,258.41,747.25,258.15,745.09z"/>
	<path class="st5" d="M259.12,753.18c-0.11,0.51-0.21,1.02-0.32,1.52C258.9,754.2,259.01,753.69,259.12,753.18z"/>
	<path class="st2" d="M622.69,684.85c-0.23-0.13-0.45-0.27-0.68-0.4c0.24,0.12,0.49,0.23,0.73,0.35
		C622.74,684.8,622.69,684.85,622.69,684.85z"/>
	<path class="st1" d="M451.85,1030.22c0,3.86,0,7.71,0,11.57c5.25-3.75,0.61-10.29,5.98-13.42c2.39,1.19,2.21,3.45,2.39,5.61
		c3,34.84,3.62,69.54,0.56,104.57c-2.09,23.93-5.64,47.84-5.67,71.96c-1.96,10.81-4.03,21.62,1.33,32.12
		c-0.14,7.27-0.28,14.55-0.43,21.82c-0.26,0.61-0.5,1.22-0.75,1.83c0,0,0.15,0.01,0.15,0.01c-3.89-0.14-7.78-0.27-11.67-0.41
		c-0.55-1.07-1.1-2.14-1.65-3.2c6.65-4.22,4.42-10.96,3.34-16.22c-4.16-20.33-0.98-40.48,0.72-60.59
		c2.7-32.03,6.85-63.97,6.13-96.19c-0.36-16.2,0.64-32.46-1.82-48.61C449.92,1037.54,448.83,1033.48,451.85,1030.22z"/>
	<path class="st12" d="M442.08,1262.66c0.55,1.07,1.1,2.14,1.65,3.2c-4.5-0.03-9-0.07-13.5-0.1
		C433.88,1263.59,437.73,1262.19,442.08,1262.66z"/>
	<path class="st2" d="M531.87,929.02c0.83-10.11,6.98-18.69,8.09-28.8c2.04-18.57,2.18-37.22,2.82-55.85
		c8.44,5.89,7.37,14.67,6.21,22.9c-1.37,9.69-1.78,19.19,0.1,28.81C551.34,907.59,542.08,925.17,531.87,929.02z"/>
	<path class="st2" d="M541.47,839.44c-2.29-4.64-2.35-9.74-2.99-14.72C545.71,827.62,546.98,833.9,541.47,839.44z"/>
	<path class="st2" d="M526.34,945.14c0.19-3.06,1.29-5.75,3.2-8.13C536.18,942.75,529.98,943.44,526.34,945.14z"/>
	<path class="st2" d="M547.09,830.88c0.22,0.46,0.59,0.87,0.57,1.27c-0.02,0.39-0.43,0.76-0.67,1.14c-0.2-0.4-0.57-0.81-0.56-1.21
		C546.44,831.69,546.83,831.31,547.09,830.88z"/>
	<path class="st2" d="M530.53,952.92c0.21,0.13,0.61,0.32,0.59,0.39c-0.13,0.46-0.25,0.96-0.55,1.31c-0.59,0.69-0.85,0.52-0.58-0.35
		C530.14,953.8,530.34,953.36,530.53,952.92z"/>
	<path class="st0" d="M157.31,365.93c0.5,0.02,1,0.04,1.49,0.06c4.12,0.95,4.35,4.78,2.32,6.35c-2.27,1.77-3.94-2.05-5.71-3.67
		C156.04,367.76,156.68,366.85,157.31,365.93z"/>
	<path class="st0" d="M139.94,436.3c0.48-0.1,0.8,0.07,0.99,0.52c-0.31,0.28-0.63,0.57-0.94,0.85
		C139.98,437.22,139.96,436.76,139.94,436.3z"/>
	<path class="st7" d="M227.19,509.07c-2.85-0.73-4.83-2.62-6.57-4.85C224.17,504,227.68,503.83,227.19,509.07z"/>
	<path class="st5" d="M434.33,681.31c-0.68,0.08-1.36,0.16-2.04,0.24C432.97,681.47,433.65,681.39,434.33,681.31z"/>
	<path class="st5" d="M270.79,666.93c-0.4-0.57-0.79-1.15-1.19-1.72C270,665.79,270.39,666.36,270.79,666.93z"/>
	<path class="st11" d="M313.13,358.99c2.75-4.32,5.2-8.86,8.3-12.91c14.72-19.22,17.8-40.65,12.31-63.69
		c-5.57-23.38-8.17-46.91-2.29-70.53c4.71-18.91,16.21-33.75,30.37-46.7c0.25,0.23,0.5,0.46,0.75,0.68
		c-1.15,1.79-2.06,3.82-3.5,5.34c-20.65,21.82-29.87,47.58-27.69,77.63c1.16,15.92,5.36,31.3,7.4,47.08
		c3.39,26.16-8.83,45.66-24.54,64.14C313.87,359.68,313.5,359.34,313.13,358.99z"/>
	<path class="st11" d="M316.72,152.62c1.76-7.32,8.23-10.34,13.51-14.13c17.41-12.49,36.28-19.96,58.3-15.21
		c6.94,1.5,13.26,4.4,19.43,7.71c3.59,1.93,7.1,3.84,11.33,3.71c0,0-0.02-0.02-0.02-0.02c-0.73,3.47-2.12,5.02-6.39,5.32
		c-9.88,0.7-19.73,2.47-28.18,8.41c-6.15,4.33-12.32,8.64-18.48,12.96c-0.31-0.3-0.62-0.59-0.93-0.88
		c12.07-14.04,26.96-22.58,46.28-23.06c-25.8-18.57-58.52-15.64-84.2,6.92C324.02,147.3,321.73,151.77,316.72,152.62z"/>
	<path class="st4" d="M289.04,464.82c0.01-0.96,0.03-1.92,0.04-2.88c3.54-6.99,8.65-13.36,6.96-22.16
		c-0.67-3.49-1.23-6.57-3.65-9.47c-5.14-6.17-4.28-9.13,3.2-13.56c2.64,3.89-0.28,9.64,4.17,13.19c1.66-2.24,0.75-4.42,0.8-6.52
		c2.6,4.68-0.5,10.39,2.22,14.81c5.06,8.24,0.95,14.34-3.84,20.51c-4.27,1.62-4.46,5.57-5.25,9.18
		C292.35,466.57,291.44,464.57,289.04,464.82z"/>
	<path class="st11" d="M300.56,423.42c-0.05,2.09,0.86,4.27-0.8,6.51c-4.45-3.55-1.53-9.3-4.17-13.19
		c-1.37-18.51,1.59-35.99,12.54-51.5c1.53-2.18,3.33-4.17,5.01-6.24c0.37,0.34,0.74,0.69,1.1,1.03c-1.87,3.27-3.62,6.61-5.6,9.81
		C298.27,386.55,296.31,404.51,300.56,423.42z"/>
	<path class="st11" d="M363.44,163.51c0.62-1,1.23-2.01,1.85-3.02c0.31,0.29,0.62,0.59,0.92,0.87c-0.7,0.93-1.39,1.87-2.08,2.81
		C363.9,163.96,363.67,163.74,363.44,163.51z"/>
	<path class="st11" d="M361.82,165.16c0.55-0.55,1.09-1.09,1.63-1.64c0.22,0.22,0.45,0.44,0.68,0.66c-0.52,0.55-1.05,1.11-1.57,1.66
		C362.31,165.61,362.06,165.39,361.82,165.16z"/>
	<path class="st5" d="M191.26,177c0.65-2.84-1.44-6.8,3.42-7.93c4.19-0.97,6.44,1.39,8.56,4.38c1.97,2.79,3.69,5.23,7.93,5.94
		c4.39,0.73,5.85,4.51,2.34,8.59c-3.7,4.31-8.08,6.94-14.04,6.86c-6.53-0.09-10.6-2.15-9.39-9.6
		C195.79,183.27,191.45,179.84,191.26,177z"/>
	<path class="st4" d="M191.26,177c0.19,2.83,4.54,6.26-1.18,8.25c-1.79-0.5-4.97,0.77-4.37-2.91
		C186.18,179.37,187.16,176.43,191.26,177z"/>
	<path class="st8" d="M300.97,243.5c1.69,3.69,0.98,7.63,1.17,11.48c-0.01,12.01-0.02,24.01-0.04,36.01
		c0.15,3.88-0.3,7.67-1.76,11.3c-3.1-4.44-1.31-9.43-1.44-14.15c-0.29-10.8,0.05-21.61-0.19-32.42c-0.06-2.73,1.73-7.64-4.5-6.39
		c-0.23,0.05-0.68,0.01-0.72-0.1c-2.51-6.76-0.63-13.78-1.16-20.66c-0.29-3.79,2.21-4.45,5.2-4.48c1.41,1.45,1.09,3.25,1.03,4.99
		C293.11,235.11,294.25,242.02,300.97,243.5z"/>
	<path class="st8" d="M293.12,301.14c0-7.88,0-15.75,0-23.63c2.79,7.83,2.69,15.7,2,23.59
		C294.45,301.12,293.78,301.13,293.12,301.14z"/>
	<path class="st4" d="M175.82,304.47c-3.89-2.09-4.48-5.21-3.4-8.69c0.3-0.97,1.71-1.7,2.64-0.92
		C178.36,297.66,176,301.13,175.82,304.47z"/>
	<path class="st8" d="M362.56,165.84c0.52-0.55,1.04-1.11,1.57-1.66c0.69-0.94,1.38-1.88,2.08-2.81
		c6.17-4.31,12.33-8.62,18.49-12.95c8.45-5.94,18.3-7.71,28.18-8.41c4.27-0.3,5.66-1.85,6.39-5.32c7.23,5.6,0.35,7.94-2.64,11
		c-14.92,15.25-27.16,31.76-24.77,54.73c0.7,6.68,1.77,13.49,3.87,19.84c8.79,26.56,5.09,50.91-13.23,72.11
		c-22.45,25.96-23.43,55.96-17.62,87.27c1.84,9.89,2.62,19.84,3.4,29.75c0.68,8.58-3.74,16.43-8.66,23.18
		c-8.09,11.11-17.59,21.21-25.56,32.4c-11.15,15.66-20.11,32.47-21.41,52.28c-2.49,1.23-4.72,3.35-7.88,2.37
		c0.87-3.56-0.13-6.72-1.45-10.09c-5-12.73-10.2-25.49-6.3-39.71c0.99-3.59,1.29-7.37,1.91-11.07c4.79-6.17,8.9-12.27,3.84-20.51
		c-2.71-4.42,0.38-10.13-2.22-14.81c-4.25-18.9-2.29-36.86,8.07-53.58c1.98-3.2,3.73-6.54,5.6-9.81
		c15.72-18.48,27.94-37.97,24.55-64.14c-2.04-15.78-6.24-31.15-7.4-47.08c-2.18-30.05,7.04-55.81,27.69-77.63
		C360.51,169.66,361.41,167.63,362.56,165.84z"/>
	<path class="st8" d="M393.49,457.85c-3.65,6.08-6.35,12.34-6.93,19.66c-0.79,9.97-4.2,18.59-13.83,23.99
		c-17.98,10.08-37.25,14.89-57.68,15.71c4.18-30.28,22.83-52.54,41.5-74.78c7.04-8.39,12.08-17.66,14.49-28.51
		c1.9-8.57-0.18-16.75-1.56-24.87c-3.32-19.54-5.71-38.95-2.59-58.81c2.16-13.77,9.48-24.77,17.78-35.05
		c18.75-23.21,23.75-48.61,13.85-76.73c-9.93-28.21,0.16-50.77,19.82-70.42c7.09-7.09,9.19-5.99,13.78,2.96
		c6.8,13.25,2.51,25.83-1.45,38.52c-3.29,10.57-6.89,20.94-8.66,32.04c-1.71,10.75,0.76,20.32,3.72,30.17
		c3.5,11.64,7.23,23.25,6.68,35.66c-0.04,11.29-0.15,22.58-0.1,33.87c0.03,5.93-1.97,13.94-5.24,15.53
		c-9.35,4.55-5.53,9.15-2.52,14.61c-0.5,1.08-1,2.16-1.51,3.24c-4.97-0.02-3.51,3.66-3.68,6.4c0,0,0.04,0.01,0.04,0.01
		c-4.16,0.69-9.33,3.02-9.19,6.4c0.35,8.19-5.26,15.13-3.78,23.25c-0.1,0.93-0.2,1.85-0.29,2.78c-4.46-2.93-7.03-2.92-6.47,3.61
		c0.73,8.71-3.22,16.8-3.27,25.65C396.34,434.41,391.48,445.86,393.49,457.85z M421.91,303.59c-0.84,0-1.69,0-2.53-0.01
		c0.28,8.29-1.16,16.62,2.53,24.86C421.91,320.16,421.91,311.87,421.91,303.59z"/>
	<path class="st10" d="M393.49,457.85c-2.01-11.99,2.85-23.44,2.92-35.11c0.05-8.85,4-16.94,3.27-25.65
		c-0.55-6.53,2.01-6.54,6.47-3.61c-7.35,17.58-4.97,37.09-10.87,54.97c-0.59,1.77,0.17,3.13,2.08,3.67
		C396.95,454.62,395.56,456.46,393.49,457.85z"/>
	<path class="st10" d="M424.56,351.4c-3.01-5.46-6.83-10.06,2.52-14.61c3.26-1.59,5.26-9.59,5.24-15.53
		c-0.05-11.29,0.05-22.58,0.1-33.87C436.15,309.51,438.2,331.41,424.56,351.4z"/>
	<path class="st10" d="M406.45,390.7c-1.48-8.12,4.13-15.06,3.78-23.25c-0.14-3.38,5.02-5.71,9.19-6.4
		C415.09,370.93,410.77,380.81,406.45,390.7z"/>
	<path class="st10" d="M419.38,361.04c0.17-2.74-1.29-6.41,3.68-6.4C422.13,356.94,421.49,359.41,419.38,361.04z"/>
	<path class="st11" d="M298.93,458.74c-0.62,3.69-0.92,7.48-1.91,11.07c-3.9,14.22,1.3,26.98,6.3,39.71
		c1.32,3.38,2.32,6.53,1.45,10.09c-1.16-7.14-8.16-11.49-8.99-18.79c0.18-0.17,0.54-0.45,0.51-0.5c-0.21-0.38-0.5-0.71-0.77-1.06
		c0,0,0.06,0.06,0.06,0.06c-2.34-10.36-3.99-20.77-1.9-31.4C294.47,464.3,294.66,460.35,298.93,458.74z"/>
	<path class="st10" d="M295.52,499.26c0.27,0.35,0.56,0.68,0.77,1.06c0.03,0.06-0.33,0.33-0.51,0.5
		C295.6,500.31,295.52,499.79,295.52,499.26z"/>
	<path class="st4" d="M280.35,113.9c3.3-6.49,1.97-10.38-2.04-13.68c-1.64-1.35-3.41-3.52-1.04-5.41c2.18-1.74,3.92,0.43,5.48,1.87
		C290.89,104.14,290.8,108.34,280.35,113.9z"/>
	<path class="st10" d="M300.97,243.5c-6.72-1.48-7.86-8.39-2.39-14.4C301.27,233.59,299.99,238.73,300.97,243.5z"/>
	<path class="st10" d="M302.11,290.99c0.01-12,0.02-24.01,0.04-36.01C304.2,266.98,304.5,278.99,302.11,290.99z"/>
	<path class="st1" d="M452.09,1005.52c2.1,8.11,2.55,16.2-0.11,24.29C452.02,1021.71,452.06,1013.62,452.09,1005.52z"/>
	<path class="st5" d="M261.85,718.73c-0.59-4.28-1.33-8.58,0.78-12.69C263.02,710.31,263.49,714.59,261.85,718.73z"/>
	<path class="st3" d="M248.08,815.55c0.86-3.36-1.04-7.19,1.75-10.23C249.9,808.84,249.37,812.26,248.08,815.55z"/>
	<path class="st5" d="M262.67,704.32c-1.52-1.61-1.7-3.19,0.07-4.75C262.71,701.16,262.69,702.74,262.67,704.32z"/>
	<path class="st1" d="M411.75,1261.34c-1.24-0.37-2.48-0.74-3.73-1.1C409.46,1259.95,410.88,1259.72,411.75,1261.34z"/>
	<path class="st1" d="M405.66,1257.66c-1.34-0.97-1.3-2.44-1.39-3.86C405.68,1254.75,405.83,1256.15,405.66,1257.66z"/>
	<path class="st3" d="M244.92,840.48c0.16-1.24,0.32-2.49,0.47-3.73C246.04,838.1,246.01,839.36,244.92,840.48z"/>
	<path class="st3" d="M243.5,841.27c-0.53,3.73,1.49,7.86-1.74,11.18C241.98,848.66,241.15,844.72,243.5,841.27z"/>
	<path class="st1" d="M333.36,856.23c0.18-0.69,0.35-1.39,0.53-2.08C333.72,854.85,333.54,855.54,333.36,856.23z"/>
	<path class="st3" d="M460.6,1224.77c-1.27-2.59-0.54-5.31-0.52-7.98c9.67,4.82,11.57,15.04,15.87,23.44
		c4.39,8.57,7.25,17.82,8.2,27.53c-9.53-9.99-15.32-22.01-19.27-35.08C464.02,1229.8,464.83,1225.88,460.6,1224.77z"/>
	<path class="st4" d="M456.43,1242.63c-5.36-10.5-3.28-21.31-1.33-32.12c0.51,0.01,1.02,0.04,1.53,0.08
		C456.57,1221.27,456.5,1231.95,456.43,1242.63z"/>
	<path class="st3" d="M460.09,1214.06c-0.12-0.42-0.22-0.85-0.29-1.28c0.18,0.26,0.41,0.51,0.53,0.8
		C460.38,1213.69,460.18,1213.9,460.09,1214.06z"/>
	<path class="st1" d="M457.41,1023.3c0.06-0.52,0.12-1.04,0.17-1.56C457.52,1022.26,457.46,1022.78,457.41,1023.3z"/>
	<path class="st3" d="M455.25,1266.27c0.25-0.61,0.49-1.22,0.75-1.83c0.01,0.01,0.54,0.5,0.54,0.5
		C456.1,1265.38,455.68,1265.83,455.25,1266.27z"/>
	<path class="st9" d="M460.54,1243.38c-0.6-1.34-0.58-2.63,0.25-3.87C461.79,1240.87,461.79,1242.17,460.54,1243.38z"/>
	<path class="st10" d="M421.91,303.59c0,8.28,0,16.57,0,24.85c-3.69-8.24-2.25-16.57-2.53-24.86
		C420.23,303.59,421.07,303.59,421.91,303.59z"/>
</g>
</svg>
